<svg xmlns="http://www.w3.org/2000/svg" class="smolgraph" style="background:#191724" viewBox="0 0 800 500">
  <style>
svg.smolgraph {
  background: #2b2b2b;
}

svg.smolgraph > .zoom-out {
  text-anchor: end;
  cursor: pointer;
}

svg.smolgraph > a > text {
  fill: #aaa;
}

svg.smolgraph text {
  font-family: monospace;
  font-size: 12;
  white-space: pre;
  fill: #eee;
}

svg.smolgraph .tick {
  stroke: #444;
  stroke-width: 0.5;
}

svg.smolgraph > .tracker > line {
  stroke: #eee;
  stroke-width: 1;
}

svg.smolgraph > .tracker > circle {
  fill: #eee;
}

svg.smolgraph .key {
  fill: rgba(0,0,0,0.4);
}

svg.smolgraph .overlay {
  fill: transparent;
  cursor: crosshair;
}
  </style>
  <link rel="stylesheet" href="./graph.css"></link>
  <path d="M66.8 19v414.8M185 19v414.8M303.2 19v414.8M421.4 19v414.8M539.5 19v414.8M657.7 19v414.8M775.9 19v414.8m-709.1 0h709.1M66.8 374.6h709.1M66.8 315.3h709.1M66.8 256h709.1M66.8 196.8h709.1M66.8 137.5h709.1M66.8 78.2h709.1M66.8 19h709.1" class="tick"/>
  <text x="66.8" y="454.6" class="tick-label" text-anchor="middle">0</text>
  <text x="185" y="454.6" class="tick-label" text-anchor="middle">50</text>
  <text x="303.2" y="454.6" class="tick-label" text-anchor="middle">100</text>
  <text x="421.4" y="454.6" class="tick-label" text-anchor="middle">150</text>
  <text x="539.5" y="454.6" class="tick-label" text-anchor="middle">200</text>
  <text x="657.7" y="454.6" class="tick-label" text-anchor="middle">250</text>
  <text x="775.9" y="454.6" class="tick-label" text-anchor="middle">300</text>
  <text x="57.2" y="439.4" class="tick-label" text-anchor="end">0</text>
  <text x="57.2" y="380.1" class="tick-label" text-anchor="end">5</text>
  <text x="57.2" y="320.9" class="tick-label" text-anchor="end">10</text>
  <text x="57.2" y="261.6" class="tick-label" text-anchor="end">15</text>
  <text x="57.2" y="202.3" class="tick-label" text-anchor="end">20</text>
  <text x="57.2" y="143.1" class="tick-label" text-anchor="end">25</text>
  <text x="57.2" y="83.8" class="tick-label" text-anchor="end">30</text>
  <text x="57.2" y="24.5" class="tick-label" text-anchor="end">35</text>
  <text x="421.4" y="482.9">Num elements</text>
  <text transform="rotate(-90 122.5 103.9)">Time (ns/call)</text>
  <g fill="none">
    <path stroke="hsl(80,40%,60%)" d="M69.2 419.2h2.3L74 418l2.4 1.2H88l2.3-2.9h2.4l2.4 3 2.3-8.8 2.4-3.8 2.4-2.4 2.3 14.8 2.4-8.5 2.4.1h9.5l2.4-.1h2.3l2.4 1 2.4 1.8 2.3-1.4 2.4 1.5 2.4-2 2.3 2 2.4-1.1 2.3.5 2.4 6.2h2.4l2.3-2.8h4.8l2.3 3 2.4-3h4.7l2.4 3 2.3-3 2.4-.2h2.4l2.3 3.2 2.4-3h16.5l2.4-.4 2.4.4H218l2.3-6.7 2.4-2.8 2.4 3 2.3-1 2.4.3 2.4.1h2.3l2.4.4 2.4 3.9 2.3-.3 2.4.2h9.5l2.4-3h2.4l2.3.1 2.4-.3 2.4.3h16.5l2.4-1 2.3 1h7.1l2.4-3h2.3l2.4.1 2.4-1.2 2.3 1.1 2.4-.1 2.4.2h7.1l2.3-1.3 2.4 1.2h7.1l2.3.1 2.4-2.9 2.4-.1 2.3-.5 2.4.5 2.4.1h7l2.4-.2 2.4.1h4.7l2.4.1h2.3l2.4-.3 2.4-.2 2.3-2.5h9.5l2.3-1.5 2.4 1.5h2.4l2.3-.5h2.4l2.4.2h9.4l2.4.3 2.3-2.8 2.4-.4 2.4.3h2.3l2.4-.1 2.4.2h2.3l2.4-.6 2.4.6h7l2.4-.4 2.4.3h4.7l2.4-2.8h2.3l2.4-.5 2.4.4h11.8l2.3-.2 2.4.3h2.4l2.3-.4 2.4.3h4.7l2.4-2.9 2.3-.4 2.4.5 2.4-.2 2.3.1h2.4l2.4-.2 2.3.3 2.4-.1h4.7l2.4-2 2.3 1.6 2.4.4h4.7l2.4-3.2 2.4.3h4.6l2.4-.2 2.3.3 2.4-.1h4.8l2.4-.4 2.3.4h4.8l2.3-.5 2.4.4 2.4.2 2.3-3h2.4l2.3-.2 2.4.2h4.7l2.4-.3 2.4.3h4.6l2.4-1.3 2.3 1.1 2.4.2h2.3l2.4-.4 2.4.4 2.3-2.9h2.4l2.4-.2 2.3.2h4.8l2.3-.3 2.4.3h4.8l2.4-.4 2.3.3h2.4l2.4-.2h2.3l2.4.2 2.4-2.8h2.3l2.4-5.7 2.4 5.4 2.3-2.7h2.4l2.3-.3 2.4 3.2 2.4-2.8 2.3-.4 2.4.4 2.4-.4 2.3.3 2.4-.5 2.4.5 2.3 3 2.4-118.6 2.3.2 2.4.4 2.4-.8 2.3-.5 2.4 1.6 2.4-8.9 2.3 5.3 2.4 4.8 2.4.2 2.3-7.9 2.4 4.9 2.3-5h2.4l2.4-1.6 2.3 3.8 2.4-1.8h2.4l2.3-2.5 2.4.6 2.4-6.8 2.3 5 2.4-3 2.3 3 2.4-1 2.4-2 2.3-.3 2.4 1 2.4-1 2.3-1h2.4l2.4 3.7 2.3-1.3 2.4-.4 2.3-2.4"/>
    <path stroke="hsl(170,40%,60%)" d="m69.2 418.7 2.3.3 2.4.3 2.4-.1h2.3l2.4-2.8 2.4-3.2 2.3 6 2.4-8.6h7.1l2.3 2.7h2.4l2.4-1.7 2.3 1.8 2.4 2.9 2.4 2.9 2.3-4.2 2.4 1.3 2.3-1.5 2.4 1.4 2.4-.2 2.3.3h16.6l2.3-.3 2.4-8.9 2.4-2.4 2.3 5.6 2.4-5.7 2.4.1 2.3.2h2.4l2.4 2.4 2.3 3.2H178l2.4-.2 2.3-2.8h2.4l2.4.1h6.9l2.4-.5 2.4.4 2.3-2.8 2.4-.1 2.4.1h4.7l2.4-.4 2.3.4 2.4-.1 2.3-2.8 2.4-.1h4.7l2.4-.1 2.4.1h2.3l2.4.1 2.4-3h2.3l2.4-.2 2.3.2h7.1l2.4-.1 2.4-2.7h7.1l2.3-.2 2.4.1h4.7l2.4-2.8 2.3-.3h2.4l2.4.2 2.3-.1 2.4.2 2.4-.2 2.3.1 2.4-3h2.3l2.4.1 2.4-.3 2.3.1 2.4.3 2.4-.1 2.3-.5 2.4-2.4h7.1l2.3-.5 2.4.5h4.7l2.4-5.2 2.4 2.3h4.7l2.4-.2 2.3.1h4.7l2.4-3.2 2.4.3 2.3-2.8 2.4 2.7 2.4-2.9 2.3.2h2.4l2.4 2.2 2.3-116.3 2.4-.6 2.4-6.2 2.3 1 2.4 5h2.3l2.4-5 2.4.8 2.3-3 2.4-.3 2.4-7.2 2.3 2.3h2.4l2.4-.8 2.3 2.2 2.4-.8 2.3 3.8h2.4l2.4-8.6 2.3 2.3 2.4-.7h2.4l2.3-3.3 2.4 3 2.4-1.9 2.3-2.3 2.4-2.3 2.3-44L438 228l2.4 12.7h2.3l2.4-1.9 2.4.1 2.3-1 2.4-.2 2.4 2 2.3-4.6h2.4l2.3-3.4 2.4 3 2.4 1.8h2.3l2.4-3 2.4-3 2.3-.4 2.4-5.8 2.4 4.9 2.3-4.8 2.4-2.2 2.3 2.6 2.4.3 2.4-2.3 2.3 1.4 2.4.5 2.4.1 2.3-3.2 2.4-5.2 2.4 3 2.3.2 2.4-3 2.3 3.5h2.4l2.4-9.7 2.3 5.9 2.4 1.5 2.4.1 2.3-17.5 2.4 14 2.4 1.5 2.3 1 2.4-5 2.3-1.2 2.4-1.7 2.4 1 2.3-3.6 2.4-3.9 2.4 2 2.3-.4 2.4-3.9 2.4 8.3 2.3-7.2h2.4l2.3-10 2.4 8.7 2.4-3.9 2.3-.4h4.8l2.3-.6 2.4.2 2.4-7.2 2.3 8 2.4-1 2.3-.3 2.4-1 2.4-6.3 2.3 5.6 2.4 7.3 2.4-13 2.3 6 2.4-4.8 2.4.3 2.3-2 2.4 2 2.3-6 2.4.1 2.4-.7 2.3-4.7 2.4 2.2 2.4.2 2.3-1.4 2.4 1.3 2.4.7 2.3 2 2.4-2.4 2.4 1.5 2.3 4 2.4 4.9 2.3-2.1 2.4 3.4 2.4-.4 2.3 3.9 2.4 1.3 2.4.7 2.3-3.9 2.4 1.5 2.4-3.1 2.3 2.5 2.4 6.3 2.3-3.5 2.4 23.1 2.4-37.8 2.3-5.7 2.4 1 2.4 5.2 2.3-.3 2.4-2.4 2.4-.2 2.3-5h2.4l2.3 5.4 2.4-.3 2.4-1.6 2.3 42.8 2.4 1.9 2.4.6 2.3.4 2.4-42.5 2.4-5.1 2.3-.4 2.4 5.5 2.3-11.2 2.4-5.7 2.4 10.3 2.3-37 2.4 31.8 2.4 4.7 2.3-7 2.4-3.3 2.4 53 2.3 1.8 2.4-26.2 2.3 21.3"/>
    <path stroke="hsl(260,40%,60%)" d="m69.2 418 2.3 1 2.4-2.3 2.4 4 2.3-2.6 2.4 2.6 2.4-2.6 2.3 2.5 2.4-2.8 2.3.1h2.4l2.4 2.7 2.3-2.9 2.4.1 2.4-.2 2.3.1 2.4-2.7h4.7l2.4.1 2.3-4.5 2.4-1.3 2.4 1.2h2.3l2.4-3h7.1l2.4-5.4 2.3-1.5 2.4 2.7 2.3-.2 2.4-1.4h2.4l2.3-.8 2.4-2.7 2.4-2h2.3l2.4 1.3 2.4-1.4 2.3-3.2 2.4.4 2.3 1.4 2.4-1.3 2.4-3 2.3 1.3 2.4 1.2 2.4.6 2.3.8 2.4-3.6 2.4-4.2 2.3.8 2.4-2.8 2.3-.3 2.4.2 2.4-.2 2.3-2.7 2.4 1.6 2.4 6h2.3l2.4-3 2.4-.8 2.3-13.3 2.4 7.6 2.3-119.6 2.4-4.8 2.4 6.8 2.3-6.4 2.4 1.3 2.4-7.3 2.3 4 2.4 5h2.4l2.3-6 2.4-5.2 2.3 5.1 2.4-7.9 2.4 4.4 2.3-6.7L256 231l2.4-4.2 2.3 10.1 2.4-3 2.4 2.8 2.3-3.8 2.4-2.4 2.3-4.3 2.4-.6 2.4-1 2.3 2.6 2.4-6 2.4-.4 2.3-1.5 2.4.3 2.4 1.9 2.3-5.7 2.4-3.8 2.3 3.4 2.4-1.3 2.4-6 2.3 3.7 2.4-.9 2.4-6.1 2.3-10.9 2.4-.5 2.4 16.5 2.3-6.7 2.4 6.8 2.3 1.2 2.4 1.7 2.4-1 2.3-2.8 2.4 4 2.4 1.5 2.3-.3 2.4-7.5 2.4-1.3 2.3.4 2.4-2.4 2.3-.3 2.4-.3 2.4-4.3 2.3-25.6 2.4-3.4 2.4-5.8 2.3-.2 2.4-6.1 2.4 41.3 2.3-.8 2.4-56.2 2.4 15.2 2.3-6h2.4l2.3-2.7 2.4-3 2.4 58.1 2.3.3 2.4-46.9 2.4-2.7 2.3-5.8h2.4l2.4-3 2.3-3.3 2.4 58.4h2.3l2.4-46.7 2.4-2.5 2.3-5.8h2.4l2.4-3 2.3-2.7 2.4 58 2.4-2.4 2.3-44 2.4-3.1 2.3-5.7 2.4.2 2.4-3 2.3-4.6 2.4 59.5h2.4l2.3-46.6 2.4-4.4 2.4-4.8 2.3.8 2.4-3.1 2.3-2.7 2.4 57.4 2.4.4 2.3-46.4 2.4-3 2.4-5.6h2.3l2.4-2.8 2.4-3.2 2.3 58 2.4.2 2.3-46.4 2.4-3 2.4-5.8h2.3l2.4-3 2.4-2.8 2.3 58.1 2.4.3 2.4-46.6 2.3-3 2.4-5.8h2.3l2.4-2.9 2.4-2.9 2.3 58 2.4.2 2.4-46.6 2.3-3.3 2.4-5.3h2.4l2.3-3 2.4-2.8 2.3 58h2.4l2.4-46.4 2.3-3 2.4-5.6 2.4 2.9 2.3 1 2.4 1.3 2.4 59.1 2.3 2.5 2.4-40.6 2.3.9 2.4-1.5 2.4 2.2 2.3-1.6 2.4-2.4 2.4 52.1 2.3-.4 2.4-41.7 2.4-1.5 2.3-7.1 2.4 2 2.3-3 2.4-3.6 2.4 52.3 2.3-.3L601 156l2.4-2.7 2.3-4.6 2.4-.5 2.4-2.5 2.3-2.5 2.4 51.7 2.3-.5 2.4-41.6 2.4-2.2 2.3-5.7 2.4 1.1 2.4-2.8 2.3-2.6 2.4 52 2.4-.6 2.3-41.8 2.4-2 2.4-5.7 2.3.8 2.4-3 2.3-2.7L653 189l2.4.5 2.3-41.6 2.4-2.4 2.4-5.6 2.3.7 2.4-2.8 2.4-2.9 2.3 52.1h2.4l2.3-42.3 2.4-1.8 2.4-5.9 2.3 1 2.4-2.6 2.4-3 2.3 51.6 2.4.2 2.4-41.8 2.3-2.2 2.4-5.2 2.3-.4 2.4-1.3 2.4-3.6 2.3 52.3 2.4-.3 2.4-42.2 2.3-2.2 2.4-5.5 2.4.9 2.3-2.8 2.4-2.8 2.3 51.9 2.4-.6 2.4-41 2.3-2.6 2.4-4.8h2.4l2.3-2.4 2.4-2.5 2.4 51.5 2.3.7 2.4-42.3 2.3-2.2"/>
    <path stroke="hsl(350,40%,60%)" d="m69.2 417 2.3 2.5 2.4-1.3 2.4 2.6 2.3-2.8H81l2.4-.2 2.3.1 2.4-3 2.3.2 2.4-2.9 2.4.2 2.3-2.6h2.4l2.4-2.7h2.3l2.4-2.6 2.4-.3 2.3-2 2.4-.3 2.3-2.7h2.4l2.4-2.5 2.3-.4 2.4-2.5 2.4.4 2.3-3 2.4.3 2.4-3.5 2.3.9 2.4-2.7 2.3.4 2.4-107.4 2.4-.5 2.3-8.5 2.4 1.6 2.4-2.4 2.3-1.7 2.4-6.2 2.4-1.8 2.3-.5 2.4-13.4 2.3-12.5 2.4 14.7 2.4-1.2 2.3-4 2.4-2.3 2.4-3 2.3-.6 2.4-6.1 2.4-.7 2.3-2.7 2.4-3.8 2.3-2.1 2.4-.7 2.4-7.5 2.3 3.7 2.4-7 2.4-.6 2.3-2.5 2.4-3.6 2.4-5.1 2.3-1.5 2.4 32.2 2.3-40.8 2.4-8.2 2.4-2.5 2.3 49.1 2.4-71.2 2.4 20.6 2.3-1L237 204l2.4-54.8 2.3-4.6 2.4 9.1 2.3 64.6 2.4-42.1 2.4-8 2.3-2.5 2.4 50.5 2.4-43 2.3-9.2 2.4-2 2.4 50 2.3-42.8 2.4-8 2.3-2 2.4 50.2 2.4-42.7 2.3-8.1 2.4-2.9 2.4 51 2.3-42.7 2.4-8.5 2.4-2.8 2.3 47 2.4-49.9 2.3 3.5 2.4-2.8 2.4 50.8 2.3-42.9 2.4-7.9 2.4-2.9 2.3 25.1 2.4-43.2 2.4-10.2 2.3-12.6 2.4 57.1 2.3-54.4 2.4 5.1 2.4-11.3 2.3 57.7 2.4-44.4 2.4-.7 2.3-2.9 2.4 55.6 2.4-46.5 2.3-9.2 2.4-2.5 2.3 54.7 2.4-47.4 2.4-7.6 2.3-2.7 2.4 55.6 2.4-47.3 2.3-8.5 2.4-3.3 2.4 55.8 2.3-46.4 2.4-11.3 2.4-3.8 2.3 58.4 2.4-46.6 2.3-9.7 2.4-2.8 2.4 56.3 2.3-46.8 2.4-8.7 2.4-2.8 2.3 55.6 2.4-46.7 2.4-9.4 2.3-2.2 2.4 55.2 2.3-46.7L412 92l2.4-3.9 2.3 57 2.4-47 2.4-8.7 2.3-4.1 2.4 56 2.4-46 2.3-8.6 2.4-2.9 2.3 54.8 2.4-46 2.4-8.9 2.3-3 2.4 55.5 2.4-46.6 2.3-8.8 2.4-3 2.4 55.6 2.3-47 2.4-8.5 2.3-3.2 2.4 54.4 2.4-45.3 2.3-8.8 2.4-3 2.4 50.6 2.3-41.6 2.4-8.8 2.4-3 2.3 53.9 2.4-45 2.3-9.3 2.4-2.6 2.4 55.2 2.3-46.6 2.4-8.5 2.4-3.1 2.3 55.6 2.4-46.8 2.4-7.4 2.3 2.3 2.4 57.2 2.3-38.8 2.4-3 2.4 2 2.3 56.3L523 102l2.4-6.8 2.3-3 2.4 49.3 2.4-41.7 2.3-7.6 2.4-3 2.3 50 2.4-42.6 2.4-7.8 2.3-2.7 2.4 50.5 2.4-42.4 2.3-7.9 2.4-1.8 2.4 49 2.3-42.7 2.4-6.7 2.3-2.4L568 131l2.4-41.7 2.3-8 2.4-2.7 2.4 49.8 2.3-41.7 2.4-8.1 2.4-2.4 2.3 49 2.4-41.4 2.3-8.3 2.4-2.2 2.4 50.2 2.3-42.4 2.4-7.5 2.4-2.2 2.3 48.7 2.4-41.5 2.4-7.5 2.3-3.1 2.4 49.4 2.3-41.2 2.4-7.5 2.4-2.7 2.3 48.7 2.4-41.6 2.4-7.6 2.3-2.6 2.4 49 2.4-42 2.3-7.1 2.4-2.5 2.4 49.4 2.3-42.4 2.4-7 2.3-3L653 107l2.4-42.8 2.3-7 2.4-2.6 2.4 49 2.3-41.3 2.4-9.5 2.4-.6 2.3 49.4 2.4-41.7 2.3-8.1L679 49l2.4 49.2 2.3-41.3 2.4-8.4 2.4-1.5 2.3 49.6 2.4-42.5 2.4-7.9 2.3-2.2 2.4 49.2 2.3-43.2 2.4-6.6 2.4-2.3 2.3 49.7 2.4-42 2.4-8.1 2.3-3.7 2.4 48.6 2.4-39.1 2.3-7.6 2.4-2.5 2.3 49.5 2.4-41.6 2.4-8 2.3-2.4 2.4 49.4 2.4-42.4 2.3-7.6 2.4-2 2.4 49 2.3-41.8 2.4-7.8 2.3-2.6"/>
  </g>
  <g class="key">
    <path d="M66.8 19h150.5v85.7H66.8z" class="key"/>
    <text x="92.1" y="39.5">field size: 1b</text>
    <path fill="hsl(80,40%,60%)" d="M76.1 33.3h8v3h-8z"/>
    <text x="92.1" y="58.1">field size: 2b</text>
    <path fill="hsl(170,40%,60%)" d="M76.1 51.9h8v3h-8z"/>
    <text x="92.1" y="76.7">field size: 4b</text>
    <path fill="hsl(260,40%,60%)" d="M76.1 70.6h8v3h-8z"/>
    <text x="92.1" y="95.4">field size: 8b</text>
    <path fill="hsl(350,40%,60%)" d="M76.1 89.2h8v3h-8z"/>
  </g>
  <path d="M0 19h800v414.9H0z" class="overlay"/>
  <a>
    <text x="9.6" y="490.4">smolgraph</text>
  </a>
</svg>
