<svg xmlns="http://www.w3.org/2000/svg" width="800" height="500" class="smolgraph" style="background:#2b2b2b">
  <style>
    svg.smolgraph text{font-family:monospace;font-size:12;white-space:pre;fill:#eee}svg.smolgraph .key{fill:rgba(0,0,0,.4)}
  </style>
  <path stroke="#444" stroke-width=".5" d="M52 15v431m91-431v431m92-431v431m91-431v431m91-431v431m91-431v431m92-431v431m91-431v431m91-431v431m-730 0h730M52 375h730M52 303h730M52 231h730M52 159h730M52 87h730M52 15h730" class="tick"/>
  <g text-anchor="middle">
    <text x="52" y="466" class="tick-label">0</text>
    <text x="143" y="466" class="tick-label">20</text>
    <text x="235" y="466" class="tick-label">40</text>
    <text x="326" y="466" class="tick-label">60</text>
    <text x="417" y="466" class="tick-label">80</text>
    <text x="508" y="466" class="tick-label">100</text>
    <text x="600" y="466" class="tick-label">120</text>
    <text x="691" y="466" class="tick-label">140</text>
    <text x="782" y="466" class="tick-label">160</text>
  </g>
  <g text-anchor="end">
    <text x="45" y="451" class="tick-label">0</text>
    <text x="45" y="379" class="tick-label">5</text>
    <text x="45" y="308" class="tick-label">10</text>
    <text x="45" y="236" class="tick-label">15</text>
    <text x="45" y="164" class="tick-label">20</text>
    <text x="45" y="92" class="tick-label">25</text>
    <text x="45" y="20" class="tick-label">30</text>
  </g>
  <text x="417" y="490">Num elements</text>
  <text transform="rotate(-90 125 105)">Time (ns/call)</text>
  <path fill="none" stroke="hsl(80,40%,60%)" d="m98 421 4 6 5-6h4l5-4 4-9 5 21 5-10 4-2 5 10 4-6 5 6 4 3 5-3 4-6 5 4 5 3 4-3 5 4 4-4 5 1 4-1 5-8 5 8h9l4-1 5 1h18l5 2h18l4-5 5-6 5 3 4 3 5-11 4 14 5-11h4l5-4 4 14 5-2 5 1 4 1h5l4-1h9l5 4 5-13 4 3 5 3h18l4-2 5 2h5l4-1 5 1h13l5-1 5 1h4l5-3 4 3 5-3h9l4 3 5-3h5l4-2 5-14 4 8 5 2 4 3 5 4 5-4 4-2 5 2 4 3 5-3h9l4 3 5-3 5-1 4 1h18l5 3 5-7 4 4 5-4 4 3 5-3h9l5 3 4-3h27l5 3 5-3h4l5-3 4 3 5-4 4 1h5l5 3 4-3h5l4-1 5 1h13l5 3 5-3h4l5-3 4 3 5-3h4l5-1 5 4 4-3 5-1"/>
  <path fill="none" stroke="hsl(170,40%,60%)" d="m98 416 4 9 5-9 4 9 5 4 4-4 5-5 5 9 4-4h5l4-3 5 5h23l4-7 5 7 4-9 5 5 4-5 5 9 5-11 4 3 5 1 4-1 5 1h9l4-3 5 3h5l4-3 5 3 4-3h9l5 2 5-2h4l5-3 4 3 5-3 4-1h5l4 3 5-3h5l4-3 5 3 4-3 5-4 4 3 5 4 5-3h4l5-3 4 3 5-4 4 1h5l4 3 5-3h5l4-8 5 8 4-3 5-1h4l5 2 5-3 4 2 5-4 4 3 5-3h9l4 4 5-4h5l4-3 5 3 4-3h9l5 3 5-3h4l5-3 4 3 5-3h9l4 3 5-4h5l4-3 5 3 4-3h9l5 4 5-4h4l5-3 4 4 5-4h9l5 3 4-3h32l5-132 4 1 5-5 4 2 5 3h4l5-7 5 2 4-4h5l4-3 5-3h9l4 4 5-2 5 5 4-11 5-29 4 33 5-3h4l5-2h5l4-8 5 10"/>
  <path fill="none" stroke="hsl(260,40%,60%)" d="M98 427h22l5-1 5-2 4-1h9l5-3h9l4-3 5-3 5 3h9l4-4 5 1h4l5-3 5-1h13l5-3h4l5-1 4 1 5-3h9l5-6 4-8 5 1 4 2 5 7 5-3h4l5 1 4-1 5-3 4-16 5 8 4 1 5-1 5 5h9l4-3 5-1 4-3 5 4 5-133 4 1 5 3 4-3 5-6 4-12 5 7 4 1 5-1 5-3 4-2 5-1 4-11 5 6 4 2 5-5 5-2 4 1h5l4-2 5-3 4-4 5-1 4-5 5-31 5 19 4 7 5-3 4 2 5-2 4-32 5 28h9l5-2 4-6 5 3 4-4 5-8 4 5 5-2 5-2 4-10 5 8 4-2 5-1 4-1 5-8 5 3 4 3h5l4-10h9l5-3 5 1 4-2 5-6 4 2 5-7 4-5 5 8 4-2 5 39h5l4-51 5-3 4-5 5-1 4-3 5-2 5 64 4-1 5-52 4-2 5-7 4 2 5-5 4-2 5 60 5 3 4-50 5-5 4-5 5 1 4-7 5-3 5 67h4l5-51"/>
  <path fill="none" stroke="hsl(350,40%,60%)" d="m98 424 4-4h5l4-3h5l4-3 5-2 5-2h4l5-3h4l5-3 4-1 5-9 4 1 5-5 5-1 4-15 5 12h4l5-1 4 3h5l5-135 4 1 5-12 4 3 5-9 4 2 5-6 4-2 5-2 5-1 4-7 5-17 4-18 5-2 4 26 5-5 5-1 4-10h5l4-3 5-4 4-3 5-2 4-9 5 5 5-9h4l5-4 4-4 5-6 4 1 5-30 5-3 4 41 5-39 4-4 5-3 4 43 5-39 4-3 5-4 5 42 4-38 5-4 4-3 5 42 4-39 5-3 5-5 4 44 5-38 4-3 5-5 4 43 5-39 4-4 5-3 5 42 4-39 5-3 4-3 5 42 4-38 5-4 5-3 4 41 5-70 4 24 5 3 4 41 5-47h4l5 1 5 41 4-37 5-4 4-3 5 42 4-39 5-2 5-49 4 86 5-39 4-1 5-5 4 43 5-39 5-4 4-3 5 42 4-39 5-3 4-3 5 42 4-40 5-2 5-4 4 42 5-40 4-2 5-2 4 42 5-39 5-1h4l5 42 4-38 5-3 4-4 5 41 4-39 5-1 5-4 4 42 5-39 4-3 5-4 4 42 5-39 5-2 4-4 5 42"/>
  <g class="key">
    <path d="M52 15h140v101H52z" class="key"/>
    <text x="76" y="38">field size: 1b</text>
    <path fill="hsl(80,40%,60%)" d="M56 31h16v3H56z"/>
    <text x="76" y="60">field size: 2b</text>
    <path fill="hsl(170,40%,60%)" d="M56 53h16v3H56z"/>
    <text x="76" y="82">field size: 4b</text>
    <path fill="hsl(260,40%,60%)" d="M56 76h16v3H56z"/>
    <text x="76" y="105">field size: 8b</text>
    <path fill="hsl(350,40%,60%)" d="M56 98h16v3H56z"/>
  </g>
  <path fill="transparent" d="M0 15h800v431H0z" class="overlay" cursor="crosshair"/>
  <a>
    <text x="7" y="493" fill="#aaa">smolgraph</text>
  </a>
  <text x="775" y="31" class="zoom-out" cursor="pointer" text-anchor="end">reset zoom</text>
</svg>
