<svg xmlns="http://www.w3.org/2000/svg" style="background:#191919" viewBox="0 0 800 500">
  <path stroke="#555" d="M89.1 20.5v406.9m96.8-406.9v406.9m96.7-406.9v406.9m96.8-406.9v406.9m96.7-406.9v406.9m96.8-406.9v406.9m96.7-406.9v406.9m96.8-406.9v406.9m-677.3 0h677.3M89.1 386.7h677.3M89.1 346.1h677.3M89.1 305.4h677.3M89.1 264.7h677.3M89.1 224h677.3M89.1 183.3h677.3M89.1 142.6h677.3M89.1 101.9h677.3M89.1 61.2h677.3M89.1 20.5h677.3" class="tick"/>
  <g fill="none">
    <path stroke="#a7c270" d="m89.1 426.8.7.2.8-.3.7.2.7-.5.7-.5.7-.2.7.2h.8l.7-.2.7-.3h.7l.7-.2.7-.1.7-.3h.8l.7-.2.7-.2.7-.3.7.2.7-.4h.8l.7-.3h1.4l.7-.2.7-1.2.8-.3.7-.1h.7l.7-.6.7-.2h.7l.8-.6.7.2h.7l.7-.5.7-.2.7-.1.7-.2.8-.1.7-.1h.7l.7-.4.7-.4.7-.1.8-.6.7.3h.7l.7-.4.7-.2h.7l.8-1 .7.4.7-.1.7.1.7-.4.7-.2.8-.2.7-.3.7-.3.7.2.7-.3h.7l.7-.2.8-.8h1.4l.7-.3h2.2l.7-.6.7-.8.7.4.7-.2h1.5l.7-.3h.7l.7-1 .7-.3.7.2.8.4.7-.3h.7l.7-1 .7-.4.7-.2.7.3h.8l.7.2.7-.2h.7l.7-.4.7-.1.8-.5.7-.2h.7l.7.4.7-.7h.7l.8-.4.7-.1.7-.2.7-.3h1.4l.7-2.6.8 1.9.7-.6.7.6.7-.5.7-.1.7-.8.8.4.7-1 .7.6h.7l.7.1.7-.4.8-.3h.7l.7-.7.7-.2.7.2.7-.7.8.1.7.3.7-.4.7-1 .7.3.7.1.7-.1h1.5l.7-.6.7-.8.7.1.7-.1.8-1.2.7 1.5.7-2 .7.7.7.1.7-.2.8.1h.7l.7-.6.7-1.5.7 1 .7-.1.8-.2.7-1.3.7-.4.7 1.5.7-.4.7-1 .7-.4.8.9h.7l.7-1.5.7-.4.7 1.3.7-1.2.8.3.7-.2.7.4.7.2.7-1.2.7-1.5.8.4.7.2.7.6.7-.3.7-1 .7-1 .8 1.4.7-.8.7.3.7-2 .7 1.8.7-1.7.7 2.2.8-4.7.7 1.5.7-1.3.7 2.8.7-2 .7 2.8.8-2.5.7 1.2.7-1.2.7-.8.7.1.7 1 .8-2.5.7 1.3.7-1.5.7 1.4.7-2.2.7 2.6.8-.3.7-.2.7-2.7.7.5.7-2.1.7 2.2.7 1 .8-4.7.7 3 .7.7.7-1.8.7-.7.7-1 .8 2.7.7-2.2.7-2 .7 4.5.7-1.7.7-4.9.8 6.1.7-1 .7-.7.7-4.5.7 3.2.7-1.6.8.9.7-.4.7.7.7.4.7-.7.7-3.4.7.9.8 1 .7.6h.7l.7.2.7-.2.7-3.3.8-.2.7 1.3.7 1.1.7.2.7-1 .7-1.7.8 1 .7-1.7.7 1.2.7.4.7 1 .7-.4.8-3.4.7-.4.7.2.7 1 .7 1.3.7-.1.7-1.7.8.4.7-2.6.7.2.7.8.7 1.6.7-.6.8.5.7-.7.7-3.5.7.7.7 1.5.7.7.8-.1.7-1.4.7-3.2.7 2.4.7.4h.7l.8.8h1.4l.7-.1.7-1.9.7-1 .7 1.3.8.2.7-.2.7-.6.7.6.7-1.9.7-.2.8 1.3.7 1.3.7-1 .7-5 .7 4.1.7-2.7.8 1.4.7 1.2.7.7.7.8.7-1.8.7-5 .8 3.3.7-.2.7 2h.7l.7-1.8.7 3.3.7-4.8.8-.8.7-.7.7 1.7.7 2.1.7-1.5.7-3.3.8 2 .7-7 .7 3.8.7.3.7.3.7-2 .8-7.2.7 1.7.7 9.7.7-5 .7-.2.7-.4.7-1.3.8-8.8.7 4.9.7 3.2.7-3.3.7 6.2.7-4 .8-6.7.7 2.4.7-.4.7 4 .7 2.2.7 5.8.8-5.7.7-3.2.7-5.2.7 2.4.7.4.7 3.2.8 2.7.7-3.2.7-3 .7-11.3.7 10 .7 3 .7-2.5.8 1 .7 2.8.7-6 .7-4 .7 4 .7-.2.8 1.8.7-4 .7 7.7.7-16.9.7 3.6.7 4 .8 6.5.7-2.2.7 4.5.7-3.4.7-7.8.7-1.6.8 14 .7-8.6.7 5.3.7.8.7-1.3.7-6.7.7-3 .8 5.1.7-3.9.7 7 .7.3.7-5.6.7-7.2.8-4 .7 10.6.7.6.7 9.1.7-4.3.7-2.1.8-6.3.7-1.4.7-3.7.7 11 .7 1 .7.4.8-2.6.7-4.9.7-1.6.7 4.2.7 1.4.7-1.6.7-1.2.8 7 .7-9.3.7.2.7-.3.7-1.6.7 3.4.8 1 .7-8.2.7-4.6.7 3 .7 4.3.7 1.8.8 2.4.7-1.2.7-5 .7-12.8.7 18 .7-4.5.8-8.5.7 9.5.7.8.7-4.5.7-3.6.7 1.1.7 3 .8 4.4.7-1.4.7 3 .7-7.5.7-3.6.7 1.3.8-1.8.7 4.6.7 2 .7 1 .7-2.7.7-6.8.8 4 .7-7.8.7 3.5.5-74.9v-24.1l.1-2v16-9.8l.1 10.2V274l.1 3.3v.3-2 11.6l.1-1v-7.8 6.8-8.4l.1-5.5v20.9h.1v2.5-5 3.4-4.7l.1-3V275v9.3-8.9l.1 6.3v-8.8V297l.1 22.3.1-23v6.8l.1-3.8v1.9l.3-12.4.2 23 .8.3.7 4.2.7-3.6.7 9.6.2-20.7v-2.2l.5 34.1.2-36.3v1.6l.1-1.6h.4v7.4l.7 25.5.7-32.5v36.1l.7-35.9v14.3l.8 9.2.7.1.3-23.3v-29.8 13.4-1.4l.1-1v11.2l.3-14v22.3-1.4l.7 14.8.5-16.2.3 25.8.6-25v1.3l.8 20 .6-29.5v-1.2l.1 17.5.7 10.7.7-4.6.8 7.1.7.5.7 12.3.2-38.6.2 1.5.3 18.5.7-.1.7 13.3.8.2.7-22.8v-10.7l.1.7.6 24.8.7 9.1.7-14.8.7 6.5.7-3 .8-1 .1-23.2.6 26.4.7-13.5.7 17.8v-42l.1 11.2.6 27.5.2-41.2v-4.8 8.8V262v11.9l.1-12.1V260v.3-.4l.1 4.1v-.2 24l.3 22.5.8-.3.7-12.5.7 16 .7-.8.7-6.6v-47.7 3.4l.7 59.7.5-42v4.8l.3 33.8.7-22.4v-19.4.3-.2 6l.7 35 .3-31.3.4 37.8.7-6.7.2-34.8.5 34.7.8 4 .4-33.4v-.8l.3 28.6.7-10.9.7 38 .7-27.6.7 5.4.7-.6.8-7.4.7 5.3.4 29.5.3-24.6.7-1.1.7-2.6.7-7.8.8-2 .7-4.4.5-40.2v-13.1 20l.1 1.2v14.1l.1.7v-25 18.5l.1 6.2.3-29.4v14.7l.1-.5v9.5-.2l.2 19.8.7 2.3.7 13 .8-2.2.7-.6.7-8.7.7-5.7.6-80.8V206v32.2l.1 8v6.4-.4 20.7l.1 5.3v4.4-.3l.4-10.5V251v25.4l.1 1.6v2.4l.1 16 .8-8.9.7 22.7.2-35.5V270v11.2l.5 27.8.4-33.4v-1.2 3.8l.1-.4v3.5l.2 19.5.7-13 .7 33.5.7-4.2.8-18.7.7 19.7.7-10.8.7 9.1.7-1.3.5 25.7.2-41.3.8 14.3.7 12.8.7-5.6.7-21.2.7 12 .7-4.5.8 9.2.6-35.6V301l.8 1.5.7 9 .5-29.3.2 21.5.7 4.8.8-5.7.2-23.2.5 36.7.7-1.6.3-96.8v14.5-4.3 14.7l.1 8.1v1.5-.3 6.4-.8l.1 1v13.7-38.6l.1 7.3v26.3-3.3l.1 6.3v6.2l.7-10.3v-44.1V241l.1.8v25.9l.1 3v7.4l.5 26.9.7-14.7.3-20.6v6.7l.5 37.9.7-4.6.7-13 .7 7.2.7-5.6.7 6 .8 10.1.5-40.5v-14.3 10.9l.2 16.4.7 24.4.7-.4.7 5.1.1 25.3v-4.8l.6-30.2.8-19.5.4-13.8v3.8l.3 33.5.7 7.6.7-15.6.7 7.4.7-.7.7-15 .8 15 .7.4.7 1.9.7-20.9.4-92.8v-.4 3.8-.1 4.3l.1.6v9.2-3.2 14.8l.1 1.7v-1 8.4l.1 5.5v17.3-4.6l.1 9.3v10.2-5.6l.1 1.2v-39.8l.1 26.9v3.8-.4 12.2l.1 1.4v.7l.3 30.1.3-32.4.1-22V267l.3 5.1v7.6l.4-17.6.4 42 .7-20.8.7 34 .7-15 .7-2.4.8-.6.7 10.2.7 5 .6-42 .1 25.1.7 9.6.7-25 .8 7.6.7-24.7v-38.4 38.9l.3-7v-11.2 13.9l.1 2.4.2 2.9v5.5l.1-3.8v-2.4 4.2l.7 15.1.1-16.1v.3l.1-1.4.1 1.4v-2.2l.2 1v-16.9l.2 56.3.5-39.5v-21.5 19.2-19.3 3.4l.2 11.1v22.7l.2-15.3v-.3l.2-.7v-8.6 8.1l.1-4.8.2-9.2v-12.8l.1-.9v19.5l.1.7v-.7 5.4-11.7l.1-3.7v15.4-2.3l.1-7v-24.1 24.7l.2 10.5v-3.4 1-2.1l.2 17.4.2-24.7v5.4-9.8 8.7l.1-8v-17.1 3.4l.1 3.4v15.3-2.2 6.4l.1-1.4v-18.9l.1 21.1v-9.2 10.2l.1-3v5.2-8 5.3-5.7l.3-4.1v.2-1.8l.1-5v14.7-13l.1-3V241v14.8l.1 6v-21.9 5.5l.1-1.2v-5 17.2l.2-3v-.9 7.8-6.4l.1-4.4v6.3-21.9l.1-9.1v10-9.6.6l.1 13.8v-14.4 10.7l.1 1.6v8.5l.1 24.1.1-10.7v-1.8l.1.6v1.8-10.8l.1 4.7v2l.4 14.3v-14.8l.2 3.9.3-.8.2-6.8v-3 3-1.4l.1-5.7.3 1.3v7.7l.1-4v4.3l.1-1.5v-6.9 1.9l.1-5.9v-15.7 29.9l.1 1.7v-7l.1-13.1v7-11.4 18.6l.1-1v-4 5.3l.1-2.2V247l.2-1.4v-14 21.1l.2 3.5.1-25.7v-13.2 16.2l.1 6.7v-4.3 14.2-18.6l.1 3.9V248v-1.4l.1-2.4v9-9.8 4.7l.1-3.5v-3 11.6h.1v-26.4l.1 8.3v-17.7l.2 35.7.1-.7.2.2v.3-11.5 2.7-6l.1 7.4v5.4-3.6l.1 23v41l.7-29.5.2-40.4v8l.1 1.6v-15.6l.4 26.3.8 17.7.2-28.6v-11.3l.2 7.4v1l.1-3.2v5.9l.1-11.9v-1.5 4.8l.1-9.1v-.9 17.6-6l.3-.5v-.3l.4 27.4.3-26.8v-19.6l.1 20.2v-5.8 11.2l.1-.8v-3.1l.1 4.2v-13 8.8-28.7V236l.1 6.5v5-3.6l.1 3.5v70l.2-5v1.4-5.9h.1v4.6l.1 4v-2.9l.2-26.4.5 22.7v-92.5l.1-34v-1.7 21.8l.1 5.7v36l.1-13v14.9l.1-1 .6 45.3.7-18.4.5 33.6v.4l.1-.3v-25.2l.8 13.3.2 30.6v-16.1l.5-10.6.7 1.9.7-19.7.8 9v26.3l.1-1.8V312l.1 1.8.5-25.8.1-106v25.5-4.2 2.3l.1 6v-.5 31.5-31.9l.1 6.6v16.5l.1-10.5V195v26.7l.1 5.7v7.9l.2 43.2.3-29 .4 31.2.3-38v-1.4l.4 62.3.3 6.3v1h.1v-90.5l.1 11.2v12.7l.2 23.7.4 40.2.4-17.8.7-28.8.7-1.4.4 60.3v-10.4l.3-41.4.2-24.6.5 43.9.7-24.7.1-18.7.7 38.3.2 29.7.5-22.7v24.4-.8 3.3l.1-.8v10.2-11.8 1l.1-4.5v2.5-3.2 3.7l.2-2.1V310v4.4-3.3l.1 7.4v-6 4.9-6.2 1.8l.2-26.3.4 28.2v-1.7l.3-40.6.7-7.3.7 30 .4-47.6.2 67.2.1 1.8V303l.8-21.2.4-27.7.3 19.3.2 42.9.3-2.5.2-11.5.7-21.5.2 32 .4 7.2.1-12.8.7-30.6.7-21v.3l.6-39.7v33.9l.2 23.5.5-36.5v-8.4V250l.2 24.2.6-23.5v-3.4 5.5l.1 13.3.7 18.6.3-31.9.4 5.5.6-5.7.2 4 .7 18.7.6-25.7v69.9l.1-7.8.4-1.1.3-16.3.7-25.7.4-16.6v1.6-3.1l.1 1.5v.7l.2 19.5.6-29.1v-21.5 27.9l.1 1.4v1.8l.8 19 .2-21.4v-2.9l.4-2.5v-14.6 10.6l.1-2 .7 42.2v-40.9 1l.2.3v6.4-.3l.2 2.8.3 44.2.5-49.4V237l.1-.5v7.8-18.5 5.6l.1 9.4v2.4-3.7 70.7l.2 5.1.3 7.3.3-51.5.1-59.8v-9.9 5.8l.1 8.7v1.7-.3 3.6-27.4l.1-.1v7.5-4.7l.1-1.6v18.2l.1.2v21.7-58.6 1.4-2.7l.1 6.6v19.3-5.7 12.4l.1 21v17.1l.1-1.8v2.2l.4-8.9.2 38.5.2 36v1l.5-31.6.7 1.5.7-13.2.2-64.1v-28.2 2.7l.1-10v-5.3 10.6l.1-2.3v24.6l.1 12.1v17.5V188v7.6l.1 2.8v30.9l.1 4.5v5.9-1.4l.6-27.3v-.1 9.5-1.7 8.3h.1v18.3l.6-31V231v-3.3 3.5l.2 40.7.7 19.7.7-12.8.7 4.4.7-8.4.8 26.1.6-65v-2.2 5.6-1.5 2.6l.4 74v-8 3l.1-6.8v4.7-5.2 4.9l.1.7v-3.4l.2-12.5.7 11.4.7-38.8.7 21 .3 26.3.4-121.5v-50.6 36.3-5.5l.1 35.3v22.7-.1l.1.8v12.3l.1-25.6v12.7l.5 56.5.4 19.8v.3-.7l.3-27 .7-3.3.7-22.3.7 58.2v-31.3l.4 22.5.4-24.1.6-36v26l.4 41.3v1.1-7.1 1.6l.1 3.6v1.4-6.6 11.5-4.1l.1-5.2.2-31.3.6-35.7v-42.8 35.6-1.2l.1 7.4v-46.8l.1.4v1.5-5.5 13.1-2.8l.6 82.6v-43.6 6.1l.7 34.9.5 27.3.2-39.4.2-28.5.5 6.2v25.8l.8 9.8.2-51v14.8-.1l.5 27.5.2-34.6.5 27.7.3-28.2.2 8.6.2 58v-12.2l.7-20 .3-39.9v7.7l.5 33.5.6 32.1v-18l.8-18.3.4-27.2v-4.3 4.7l.3 20.7.1-31.5.6 61 .7-18 .3-30.7.2 58.6.3-18.3.1-43.2.2 3.5.4 26.9.7-5.7.7 2.5.1 34.6.6-21.8v-42.8l.7 40.3.6 27.7V132v3l.1 51.3v-3 34.5l.1 5.8V240v-1l.5-36.3v-3 17.8l.1 5.9v16.8-2.1l.6-13.8v-.3 13.4l.2 30.6.7-10.1.7-5.9v-12.5l.4-17.9V210v19.5l.1 5.8v-28 3.3-4.9 1.8l.1 10v12.2l.1 29.5.7 22 .8-18.7v-32l.2 75 .2-73.7v6.6V221l.1.3V235l.2 21 .4-29.2v2.1l.2 5.5.1 36 .7-15.2.7 5.5.7-2.8.8-.5.1 44.1.2-115.6v-55 12.7-2.2l.1 19.7v-24.5 15.3l.1 5.7v17-.3l.1 48.3v16-17.2l.1-5.4v7.5-1.4 8.6l.7 36.1.7 9.3.1-54.9.1-9V227l.3 67.7.2-19.4.6-43.4v-7.5 9.3-2l.1 11.2.8 19 .7-.4.5-72.1v-10.5 30.6-38.2l.1 3.1v16.5l.1-.7v25.4-26.7 6.8l.1 32.6v-82.8 5.1l.1 6v27.9l.1 2.2v37.9l.1 4.4.3-25.6v5-.6 3.3l.1-1.2v16.6l.6 27 .4-27.8.3 32.9.3 40.3v6.4-17.2l.5-6.2.3-52.4v-4.3l.1 64.9v-1.7 1.7l.3-30.2.7-5 .1 34.6v5.6l.2-.5v-4l.4-37.9.5 41.1v7.7-6.3 2.4l.1 3.6v1-1.7l.1-49 .7-9.3.7 15 .8.6.7-30.2v5-9.4 7.2-1.8 1.8-27.7l.1 15.5V229l.3-4.8.2.8v26l.4-21.6v-15.1V230l.1-4.1.1 2v.7-1.5l.2 25.9.7 18.5v30l.1-2.3v-6.5 4.8l.1-2.6.5-28.8.7 42.6v-16.5 4.9-4l.3-4.4.5 8.7v-21.2l.2-47.5.5 13.2.7 44.2v3.5l.3-142.6v-7 11.3-6.9l.1 11.7v23-44.6l.1 6.5v6-7.1 12.4l.1 3.4v12.8-7.2 5.5h.1v15.5-4.6 6.4l.1 1.6v1.3-4.7 6l.1.4v15.2-54.8 15.3l.1-.2v.2-1.7l.1 6v8.8l.1 4.9v-2.2l.1 5.2v17l.1-58.8v14.1l.1 1.8V206l.1-7.9V194v4.7l.1-2v25.7l.2-34.6v-41.4V182l.1.7v9.8-1.6 24.2l.2 12.6.3-7.8v-40.3 31.1l.1-7.3v7.4l.3 48.3.3-37.7.4 32.3.7-28v-3.8l.1 58.3.6-16.8.4 17.5v-.2l.2 4V281v.4l.1.5v-4.7 3l.4 1.5.3-.3V270l.1 24.3v-8.8l.1-.4.6-25.3.6 24.3v.7-2.7l.2 11.5v-10.2 7.8-4.1l.5-.6v5.8l.1-12.4v10.8-5.7l.1 1 .6-36 .7 12.3.5-37.2.2 47.9.8-18.1.5-28.6.2 44.4V226l.2-6.7v4-10.7 13.6l.5 24 .3-26.6.4 41.5.6 31.3v-9.2l.1-1v-124 27.5l.1-42V131v12.5l.1 2.4v-.2 43.1-1.8l.1.3v14.2-17V198l.1 3.7v5.9l.1-18.6v-21 10l.1 1.2V148v4.7-.7l.1 6v.5-1.3 7.5l.1 9.7v-4 6.8-2.2l.1-.4v-.4V200v-32.8l.1-.8V196l.1-3.5v-4.1 6.6l.1 5v3.8l.1 2.6v3.6-.8l.1 4.5v-1.6 3.3-17.3l.1-35v4-5 3.6l.1.5v10.1l.1.8v17-5l.1 1.5V202l.1 4.7v-8.1 3-42.7l.1 1.7v17.3l.1 4.6v25l.1 2 .4 5.7.3 38.5.3-38 .3 61 .1-29.4.6 30 .1-18.9.7-4 .3 22.1v7.8l.1-1.7.4-31 .7-28 .7 26 .3-39.2.4 42.5.4-35.2V111v15l.1 5.5V155v-50.4 11l.1 9.2V152l.1 12.2V193l.1 2v13.4l.2 4.5.1-11v-19.3 25.1l.2-4.3v8.4-4.4l.1.7v-18.6 15.4l.1 1.5v.5-12.8 5.6l.1-4v-13.9 13.6l.1 5.2v-6.9 1-7 9.3l.1-5.7v8.8-.5 8.3l.1 2.5v-11.8V210l.3 13.5v-17.7l.2 1v1.9-12.2 1.4l.1-5.8v1.6-.1 10.9l.1.9v-9.9 13.2-14.1l.1 6v8.8-8.4l.2 33 .2-32.4v.2-3.8l.1 10.4v-3 4.2-5.6l.1-8.5v-3.1 12.8-17.9l.1-2.5v-9 .9l.1 1.9v23l.1-2.6v6.9-14.3l.1 11.8v2.7l.2-.9v-8.3 10.5-9.7l.1-14.3v3V175l.3 48.4v-24l.1-4.3V176v27l.3 2.6.3-.2V197l.1 8.6v-10.9 81l.1-8.2.2-60.8v-1 .9-3.1l.1-.6v-11.2 2.6-3.3l.1-2v6.7l.1 7v-14.3 15.8l.1 1v-20 8-1.6l.1-2.7v-2.6 1.7-6.6 9.5l.1-.5V189v6.2-8.5l.1 2.5v-3.4 8.2l.3 7.3v-6.7 9.3-3l.2 2.4V177v10.2l.1 9.9v-13.4 18.5l.1-8.9v3.7-5.2 2l.1-1.2v-5 10-3.5l.1 4.9v-19.3 1.6h.1V199v-14 4.1l.1 3.6V182v6.4l.1 1.9v8.6V188l.1 10v-5.5l.1-6.5v11.2-6.2l.3 6.7v6.2l.1-19v.8-11 23.1l.1-10v-2 4.9-9.5l.1-6.7V160v18-2.2 1.1l.1-5.2v17.1l.1-8.5v13.1-2.4l.1-12.7v10l.2 6.4v-8.5l.1 12.2v-10.3l.3 10.6v-15 10-8 5.5l.1-6.1v7.9-15.2 14.1l.2 4.5v10.9-13.7.2l.2-3.7v6.2-.3 80.2l.2-84.5v-13V193l.1 2.9.2 25.3.2-25v-.9l.4-1.6v-8.5l.1 7.7v16.3l.3 52.4v-5.5l.1-61.3.1-9v6.5l.2 1.5V238l.1 22.7v-1 3.6l.1-6V271l.1-13.1v9.9-5.3 2.7l.1 4.5V256l.2-.2v2.2-.7 3.6-4.2V272l.1-5.8v-18l.2 7.8v3.5l.3.4.1 15V260v4.8l.1.6v-27l.4 19.3.1 3.8v-.9l.3-12.2.6 17v-1.7l.1-35.3.7 9.4.1 21.4v6.5-6.2 4l.7-37.8.2 48.2v5.5-9.1 8l.1 11.2v-29.1l.2 4.5v-3.2l.1 2.4v-3.5l.2 2.2v-2.4l.1-.9v4.1-62l.1-93.8v-1.4 29.4l.1 14.9v10V136v50.1l.1-20v-29.4 25.9l.1 4.4v3.3-.3l.1-6.9v19.7l.2 1.2v-4.7 5.6-.4 8.5-25.2l.1 4 .4 84.2v3-96.8 7.6l.1 5.3v15l.1 73v5.5-3.5l.1 4.3v2.2-4.5l.2-7.7v6.7-5.5l.1.3v7.8-3.9 10.3l.1-41.3.2 26.2v3.7l.5-54 .7 48.9v6.4-2.6l.1 5.7v6.3-4.5l.1 6.5V261v2.6l.5-4.4V253l.2 11 .6-16.1v15.4-2.5l.3-60.6v-7l.4 52.3.3 14.9v7-2.1l.1-3v.2l.3-8v6.3l.3.5v4.3l.3-3.3V274l.1-33.9.2 33.8v4.9-1.7 5.3-14 3.2l.1-3.2V264l.1-.1.3-14.3.2 13 .3 1v19.5l.2-19.3v5.1-6.8l.7 2.9v7.5-20.8l.6 13v7.9l.2-41.7.7 18.5.6 44.6v-9.2 14-22.6l.1-2v-10 10l.1-8.4v6.8-3.2l.1-2.6V286l.1-6.1V267v5.8l.1 4.4v-10.9l.3-31.1.5-108.1V77.8 111l.1.1v80.4l.1 1V211l.2-58.6v33.9V176v5.5l.1 4.4v20.4l.3 59.1V264l.1-145.3V81v2-1l.1 6v8.8-2.6l.1-.3v-.3 25.6l.1-.8v68l.1-64v18.1l.1 5v2.1-1.6 1.3l.1 11.8v-1.3 3.6-2 7l.1 7.2v20.2l.1-8.3v5V136v15.7l.1 5.3v13.9-2.5l.1 4.8v4.6-13 2l.1 1.4v12l.1 11v6l.1-67v17.6l.1 3v7.1-7 5-22.5h.1v-3.2 29.2l.1 9.6v13-5.5l.1 3.4V177v6.5-27.3.3l.1.3v5.7-.1 4.4l.1.2v-10.6 5.4l.1 1v12.5-9l.1 1.5v25.3l.1-46v18.5-.4l.1.3v16.2-.4l.1 6.3v5.7-18.7 7.3l.3-7.6.2 57.3.2 31v-3.2 4l.1-8.7v9.1-6.1 4.6-3l.5 6.6v4-9 17.9-5.5 3l.1-19.7v12V255l.1-1.3v5.1l.5-24.9.1 28v-5.6l.6-19.6.7 23.6V257v2.3l.1.3v-4.3l.1.5v9.7l.2-3.7.1-3.3v1.2l.1.8v4.9l.1-13.4.2 8.7.2 1.1v11.9V261l.1 2.7V258v3.4l.1-4v5l.1-26.3.3 24.2V273l.1-15.3V77.3v5.8l.1 6.3v46.4V77v3.2-.2l.1.4v22l.1 4.7v26.2l.1 17.8v21.7l.1-.3v3.3-85.4 2l.1 2.7V115l.1 5.5v28.3l.1 1.7v3.7-.7.7l.1 19.3v-38.2 5l.1 2.4v12l.1-14.9v20.1l.1 5v.5-9.9 3.4l.1.4v13.3-40.9 5.6l.1 1v-2.9 20.1l.1 13.2v19.1l.3 39.4v-97 11l.1 4.1V157l.1 4v19.5l.1 5.8v1l.2-10.9v11l.2-115v-8.2 41.4l.1 6.3v2.5-.6 11.5l.1 27.7v-49.8 13.5-3.2l.1-.2v14.4l.1-.2v-.8 19.8l.1 5.6v-1.6 13l.1-19.7v10.9-39.4 4-.3 3.5l.1 4.2v25.1-57.5 2l.1 5.9V88.6v.9-.7V94l.1-.2v38.7l.1-48.2v20.2-1.2l.1 14.3v29.2-15.2l.1 2.5v26.6-.4l.1 1v17l.1-81.3v16.8-.8 4.2l.1 2.2v14.5l.1 1.4v12.2l.1-1.4v9.4-9.2 3l.1 14v-52.5 13.7l.1 6.3v-.2 11.3l.1 6.3v-1.4 5.2l.1 1v10.8l.1-49.3V125v-.2l.1.7v4.7-.2h.1v24.2l.1 2.3v17.7l.1-19.1v-21 11.7h.1v-3 2.9l.1 7.5v4-1.1 4.8l.1-6v-5.7 18.2l.1-4.9v1.9-36.7 16.5l.1 3.7V146v2.6-4.2l.1 8.8v13-1 3.1l.1 3 .2-10v16.3l.4 59.4v5l.1 4.6V239l.3-2.7v.2-2.7l.1 1v-.1 1.4l.4-5.5v1.4l.1.2v11l.1 2.3v3.2-2.7 9l.1-9.2v-4 6.1-9 3.5l.1 2.8v7.1-1.7l.1-16.1v-1.7V245v-9.8l.1 1.4v8.9-9 21-23.3l.1 14.3v15.7l.1-7v-16.7 28.9l.1 7.8v-18.5l.1-16v-3.4 11.2-15.3l.3-.6v20.9-1.2 3l.1-14v-7.6 9.3-2.2l.1 1.7v23.7-15 4.5l.1 9v-25.9l.2-4.8V70v42.6l.1 15v1.4-11.9 2.7-2.9l.1 1.2v.8V103v3.7l.1 43.7v-33.6 2l.1 12.2v26l.1 6.4v10.2-11.3l.2 71v2.2l.1-70v9l.1-11.8v-.5 9.1l.3 73.5v9.6-3.3l.1-84.7.2 1v3.5l.3 1.7.2 42.8.1 25.3v5l.1.4v3.6-2V259h.1v1-12.7 3.3l.3-14.3v-1.4 15.3l.1.6v1-.7 2-.1l.1-.3v2-.2.2l.1.6v.3-15.4l.3-6v14.3l.1-5.1v20.5l.1-14.4v-1.1 11.5-1.1l.1-1.2v-15.8 6.9l.1-.8v-11.7 10.9-8.5 12.6-4.4l.2-7.3v3.9l.1 5.3v-11.3h.1V249l.1-20.5.1 11.6v5.2-6.1 1l.1 5.6v-1.7 3.6-1 5l.1-10.5V258v-12.4l.1 6.8v-4.6 2.9-3l.1-9.8v11.9-3.4l.1 12.7v-20.3l.1 4.4v.7-2.9h.1v7.8l.1 4.1v-8.3 11.1l.1 1.5v-13 18-6.4 3.1l.1-9v11.3-16.3l.1 10V96v16.6l.1 3.5v33.1-65.8V93l.1 6v-.9.3-4.9 29l.1-14.3v8.7-2 7.7-2.9l.1 14.2v17.4l.1 1.8v20.4-81 13.7l.1 2.4v56.2l.1 1.1v3.3l.3 66.8v-73.6l.5 72.9v6.3-.2 8.3V145v24.7l.1.4v2.4l.1 9.9.3 53.2v7-1.4 1.5-96.3l.1 1.8v10-26V144l.1 5.9v20.9l.2 20.5.2-26.3v6.9l.3 64.5v7.4-4.5 3l.1 3.5.1-8.4v9.9l.1 7.1v7.9V245l.1-4v-2.7 6.8l.1-2.2v23.7-.7 4.9l.1-.5v-12.5 20-.5l.1-4.4v-13.5 5.8-14.8 11l.1 3.7v14.5V249l.1-47.8.2-23.3.3-36v26.6l.1 5 .1 64.5v-4 13l.1-6.5v27.6-5.6l.1 9v-21.2 8.4-12.2l.1-7v30.1l.1-2.9v-10.2 1.2-11.9l.1 2.2v-7 3.5l.1-3.3v11.6l.1-13.6v6.2-7.6 8.4l.1 3.5v13.7-1.4l.1-1.2v-14.1 7-12.9l.1 14.6v-3 2.2-4.4 10.6l.1-7.6v-4.5 5-13.1 4.7l.1-.1v20.4-20.8l.1 10.3v-1.4 13.5l.1-1.4v-17.3 4.7-12.6l.1 3.1v-2V252v-6.4 12l.1 1.2v-4.9 1.4l.1.5v3.5-6.8l.1 6.3v6.8-8.8 2.1l.1-15.8v6.7-2.8 5.4l.1.2v6.7V245l.1-2v1.1l.1-2.7v4.2-2.5 7.1l.1 2.7v20.9-16.4 2.3l.1-4.4v-10.5 6.6-8l.1 10.4V245v4.1l.2-4.3v9.8-9.4l.2-8.2.2 11v1.1l.1.2v6-.5 13.3-19.9l.1.1v1.4-1 5.2l.1-3.6v12-4 3.3l.1-11v4.7-6 8.3-5.8l.1-.2v-13.8l.3 9.3v.6l.1.6v5.1-1.4 2.7-6.5l.1-1.6v22.8l.1-5.6V51l.1 2.5V66v-.9 11.2l.1 3.6v2-.1 1.7l.1 7.3v1.3V91v33.2l.1-61.7v55.9l.1 3.4v10.3l.1 3.3v-.3.8-.5 1.3h.1v.4-6.6 36.2l.1-74.4v-2.8 7.8l.1 4v.4-.1 12.2l.1 5.8v5.3-.8 8.1l.1 13.7V180v-55.6l.1 3.9v2.7-.7 6.3l.1 9v-1.1 10.1l.1 3.5v4.2-.8.2l.1-18.9v3-1.8 5.5l.1-49.2v9.8l.1.3v21.1l.1 3v43l.1-102.7V128l.1-62.6V68 54.6l.1 11.3v7.5-.5V85l.1-1v6.8l.1-.5v23-35V80l.1 2v22.4l.1.2v-1.9 8.1-4.7l.1 31.8v-.2 4.7-18.1l.1 6.1V80.2v14.4l.1 6.7v-.2 15.6l.1-2.1v4.8V98v1.7-.2l.1-19.6V125v-13.8l.1 12v7.3-3.9l.1-31.8v32.8l.1 4v-10.1 7.8l.1 3.1v8.5V113l.1 11.5V147l.1-4.2v-3.2 1.7-.1 3.6h.1v-8V150l.1 5.8v3.4-13l.1 2.4V159l.4 72.3v8.1l.2-59.2.3 48v8.6-2.1l.1-87.1v17.5l.3 28.8.2 32.6v-81.3l.4 80.5v6.9-33.8l.8 6v18.8l.1.9v3.1-2.1 10.1l.1 2.7v3-1l.1 1.2v2.4l.1-5.1v2.2l.1 6.5v-7 7.1l.1-16.8v11.7-3.6l.1-11.2v-6.9 23-6.7l.1 14.6v3.7-18.7 11.6-5.5l.1 9.2v-8.4l.1 7v-18.4 10.5-7l.1 2v7.7V229v7l.1-5v22.8-4.4l.1-1.7v-17.9 16.7l.1-.3v15.6-9.8 2.9-.7l.1-25.8v7.2-.7l.1-6.7v5.7l.1 3.1v8-9.3l.1-3.3V249v-11.1l.1 7.5v-3.6 9.8-6 4.6l.1-3.3v5.1-11.5l.1 8.2v4.8-23l.1 3.2v15.7-2l.1-5.2v-8.4 18.6-5.3l.1-3.5v.9-14.6l.1 7.8v14.1-12.4l.1-6.2v5.3V72.8v4.7l.1-13.6v45-59.8 2.3l.1 1.5v7.5l.1 3.3v9.1l.1 3.1v5.9-1.4 42.2l.1-50.3v-1.4 10.4l.1-.5v29.1"/>
    <path stroke="#70a7c2" d="M89.1 426.9v-.1h.1v.1-.2h.1v.2-.4l.1.4v-.2h.1l.1.1v-.1h.1v.3-.1h.6v-.4.2h.1l.1-.2v.2h.1v-.1.1h.4v-.2.1h.5l.1-.2h.6v-.2h.6v-.2h.6v-.1l.1-2v2-2.1 2.1l.1-2h.1v2-.1h.3V422h.2v.1-.2.2l.1-.2v.1l.1-.1v-.1h.2v-.1h.2v-.1h.1v-.1l.1-.1v.1h.1l.1-.1h.2v-.1h.2v-.2.2l.1-.2v.1h.1l.1-.3v.2-.1h.1v.1-.2h.1l.1.2v-.4l.1.1v-.2.2l.1.1v-.2.2-.3h.1v.1h.2v-.1h.2v-.3l.1.2v-1.2l.1.6v-.7.2-.2.2l.1-.1v.1-.5.2l.1-.3v.8-.2h.1v.2-.5h.1v.2h.1v-.2l.1-.2v.3-.5l.1.3.1-.2v.2-.2l.1.2v-.5l.1.4v-.3.1l.1.1v.2-.6l.1.2v.2-.2l.1.2v-.6.5-.2l.1.1h.1v-.2.2-.4l.1.2v-.1.1-.2l.1-.2v.5-.1h.1v-.4.2-.4l.1-.3v-.7.5l.1.1v-.5.4h.1v-.7.8-.9h.1v2.7-.3l.1.3v-1.8h.1v-.3.3-.3l.1.2v-.3.3h.1v-.1h.1v-.3.3-.3h.1v-.1 2.2h.1v-.3l.1-1.3v-.8.7-.6h.1v.6-.4l.1.1v.2-.1l.1.1v-.7.7l.1-.7v-.2 2.7h.1v-.2.2-.2l.1-.4v-1.6.3-.5.3l.1-.3v-.1.6h.1l.1-.1v-.9l.1 1v-.9.2-.2 2.2l.1.5v-.4.2h.1v-2.2l.1.6v-.7.6l.1-.2v.2-.2.2h.1v-.1.1l.1-.7v.7-.8l.1 2v.6-.5.5l.1-.3v.1-1.7l.1-.5v.6-.6.5h.1l.1-.3v.3-.2h.1v-.6.8-1 .3l.1-.1v2.6-.2.2l.1-.2v-1.7h.1v-.6.7-.6l.1.5h.1v-.3.2-.2l.1.3v-.7.7-.8h.1v2.6-.4l.1.4v-.6.3-1.4h.1v-.7.6-.6l.1-.4v.9l.1-.4v.4-.3l.1.3v-.8.8l.1-1v2.8l.1-.2v.2-.3l.1-1.5v-.8.8l.1-.7v.7-.1l.1-.2v.2l.1-.1v.1-.8l.1.4v-.5.2-.1 2.6h.1v-.3.3-.5.3l.1-.1V416l.1.6v-1 1l.1-.1h.1l.1-.7v.4-.4 2l.1.5v-.2.2-.2h.1v-1.5l.1-.8v.7-.6.2l.1.4v-1 .9-.2l.1.2h.1v-1.2 1-.7l.1 2.2v.5-.2.2l.1-.2v-1.5l.1-.2v-.8.4l.1.4h.2v-.7.4-.4h.1v2.5-.2l.1.1v-1.7h.1v-.6.6-.7l.1.1v.6-.4.3h.1v-.2.1l.1-.3v.4-.7.7-.7h.1v-.5 3l.1-.2v.2-.5l.1-1.6v.3-.6.6l.1-.7v.7-.1h.1l.1-.3v.3-.8.7l.1-.6v-.4 2.9h.1v-.2.2-.5l.1.2v-2.1l.1.6v-1 1h.1v-.4l.1.3v-.2.1-.7l.1.6v-.8 2l.1.7v-.7.5h.1V416l.1-1v1-.6.5l.1.1v-.4.3h.1v-.2.2-.4.4l.1-.7v.7-1 .3l.1 1.6v1-.4.3l.1-.2V416h.1v-.6.5-.5l.1.5h.1v-.5.5l.1-.1v-.6.6-.8l.1.1v2.6-.3l.1.3v-1 .5-1.3h.1v-.7.6-1l.1.3v.7-.3.2h.1v-.4.4h.1v-1.1 1.1-.7h.1v-.1 2.6-.5h.1v.5-.2l.1-1.5v-.7.6l.1-.6v.6-.6l.1.5v-.3.3l.1-.5v.5-.7.7l.1-.8v-.4 2.9h.1v-.1.2-.2h.1v-1.8.1-.5l.1.6v-1 .9h.1l.1-.4v.4-.8l.1.8v-.8 2.1l.1.5v-.2.3-.3h.1V415h.1v.5-.7.6h.1v-.5.5h.1v-.5.6l.1-1v1-1.4l.1 2.6v.5-.2.2l.1-.2v-1.7l.1.1v-.6.6-.7l.1.4v.2-.5l.1.4v.1l.1-.2v-1 1.2-.9l.1.1v2.6-.1l.1.1v-1.7l.1-.1v-.6.6-.8l.1.2v.5-.4.4h.1v-.5.5h.1v-.7.7-.7h.1v-.1 2.6l.1-.2v.2-.7.5l.1-1.5v-.3.2-.6.2l.1-.2v.6l.1-.5v.4-.3l.1.3v-.8.8l.1-.7v-.1 2.7h.1v-.6.3l.1-.1v-2.2l.1.7v-.8.7h.1v-.7.7l.1-.2v.2-.7l.1.7v-.8 1.7l.1.9v-.2.2-.2h.1v-2.2h.1v.6-1.1.8-.1l.1.3h.1v-.2.2-.1l.1-.7v.8-.9.2-.3l.1 2.3v.5-.2.2l.1-.6v.3-1.4l.1-.1v-.6.6-.5.3l.1.1h.1v-.2.2-.3l.1.3v-.7.7-.7l.1-.4v2.9-.2l.1.2V415l.1-.2v-.5.6-.7l.1.6v.1-.2.1h.1v-.1l.1.1v-.7.4-.4l.1-.3v2.6-.2h.1v.1-.1l.1-1.8v.2-.5.6-.6h.1v.6-.1h.1v-.2.2-.2l.1.2v-.7.6l.1-.6v2.5l.1-.4v.4-.3h.1V414v.6l.1-.7v.6-.1l.1.1v-.3h.1v.2-.3.4-.7l.1.7v-1 .3-.1 2l.1.5v-.3.4-.2h.1v-1.6h.1v-.2.2l.1-.2v.1h.1l.2 1.3v.5-.2h.1l.5-2.8v2.9l.7-.3.7-1.6.7-.8.7.4.8-.2h.7l.7 1.7.7-.3.7-2.3.7.5.8-.7.7.4.7-.9.7 2.4.7-1.8.7-.8.8.5.7-.2.7-.7.7 2.4.7-.5.7-1.5.7-.2.8-.8.7-.2.7 2 .7.1.7-1.6.7-.2.8-.1.7-.4.7-.5.7 2.2.7-2 .7-.4h1.5l.7.2.7 1.4h.7l.7-2.3.8.5.7-.2.7-.1.7-.9.7 2.5.7-2 .7-.6.8.4.7-.4.7-.6.7 2.5.7-.4.7-1.9h.8l.7-.4.7-.5.7 2 .7.2.7-1.8.8-.2.7-.1h.7l.7-.8.7 2.2.7-1.7.7-.8.8.5.6-69.3v-.2 2.7-2.7 2.7-3.6l.1.3v.3-.5 2.8-2.2l.1 2.6V336l.6 70 .7 1.9.7-.3.7-3 .8 1.1.7-.5.7.2.7-.8.7 2.2.7-1.6.8-.7.7.4.7-.6.7-1 .7 2.7.7-.4.8 1 .7-2.4.7-.7.7-.3.7 2 .7.1.7-2.1.8.2.7-.5.7.1.7-.5.7 2 .7-1.4.8-1.4.7 1 .7-.3h.7l.7 1.7.7-.3.8-2.2.7.5.7-.3.7-.3.7-1 .7 2.9.8-2 .7-1.1.7 1 .7-.6.7-.4.7 2.2.7-.5.8-1.3.7-.5.7.2.7-.9.7 1.8.7.3.8-1.6.7-.4h.7l.7-.3.7-.6.7 1.9.8-1.2.7-.8.7-.1.7.3.7-.6.7 2.3.8-.7.7-2.2.7.3.7.3.7-.6.7-.5.7 2.6.8-2 .7-.9.7.6h.7l.7-1.2.7 2.8.8-.4.7-2 .7-.7.7.8.7-1 .7 2 .8.1.7-1.5.7-.2.7-.3h.7l.7-1 .8 2.5.7-1.7.7-.8.7.4.7-.8.7.5.7 1.9.8-.6.7-2 .7-.1.7.3.7-.4.7-.5.8 2.4.7-1.8.7-1.2.7.6h.7l.7-1 .4-142.7v3-2.9l.1 7v-7.8.5h.1v3.5-3.8 3.7l.1-2.2v144.4l.8 4.8h.7l.7-.5.7-.1.7-2.4.8.9.7 1 .7-.2h.7l.7-.4.7.3.7-.2.8-.3.7.6.7-.3.7-.7.7.2.7.7.8-1h1.4l.7-1.2.7.3.7-.3.8.7.7.2.7-.5.7-.4.7-.8.7 1.3.8-.7.7-.3h.7l.7.6.7-1 .7-.7.7.1.8.6.7-.4.7-.5.7.6.7.5.7-1 .8-.2.7-.1.7.8.7-1.2h.7l.7-.5.8.8.7-.2.7-.7.7.5.7.5.7-1.1h.8l.7-.2.7.7.7-.7h.7l.7-.8.7 1 .8-1.3.7.2.7.2.7.1.7-.8.7-.5.8.5.7.7.7-1h.7l.7.3.7-.7.8-.2.7.2.7-.4.7.3.7-.3.7-.6h.8l.7.7.7-.5.7-.1.7-.1.7.5.7-.8.8-.3.7-.2.7.7.7-.3.7-.5.7-.1.8.7.7-1 .7-.1.7-.5.7.8.7-1 .8.2h.7l.7-1.5.7-.1.7-.5.7 1 .7-.6.8-.7.7.3h.7l.7-.1.7.1.7-1.3h.8l.7.3.7-.8.7.1.7-.2.7 1 .8-.5.7-.7.7.2.7 1 .7-.6h.7l.8-.8.7.1.7-.5.7.8.7-.2.7-.3.7-.5h.8l.7-.4.7.2.7.5.7-.7h1.5l.7-.3.7-.7.7.9.7-.6.7 2.1.8-2.5.7.2.7.3.7-.5.7-.2.7.2.8.4.7-1.8h.7l.7 1 .7-.5.7.1.7-.3.8-.6.7.1h1.4l.7.2.7-.4.8-.7.7-.3h.7l.7.2.7.3h.7l.8-.3.7-.6h.7l.7-.4.7.5.7 3 .8-3.4.7-.4.7-.8.7 1 .7-.2h.7l.7-.7.8.5.7-1 .7-.5.7.2.7 1 .7-.3h.8l.7-1.7.7.8.7-.4.7.5.7-.4.8 1 .7-2.3.7-.3.7 1.2.7-1.2.7.8.8.5.7.1.7-3.7.7.6.7 1.2.7.5.7.6.8 3.4.7-8 .7.3.7.6.7 5.7.7-4.6.8-.5.7-11 .7 11.4.7.9.7-1 .7.8.8-.7.7-.5.7-2.3.7-3 .7-2.2.7 4.5.8-1 .7.3.7-4.4.7.1.7-.3.7-1.6.7 4.8.8.5.7-.5.7-7.7.7-.3.7-.3.7 6.1h.8l.7-.5.7-10.6.7 1 .7-1.5.7 7.3.8-1.3.7-.2.7-1 .7-10.5.7.7.7-2 .8 9 .7-1.7.7-.7.7-10 .7-4 .7 1.2.7 8.6.8-1.3.7-2.2.7-15.2.7.8.6-5 .1.2.7.6.4-3v-.2.2-.3.5h.1v-.7l.1.2.2 10.3.7-.8.1-12.6.1-1v.4-.2l.1.2v.3-1 .9l.1-.1.3 9.7v-9.2.6h.1v-.4.3l.2-.3.3-3v.6l.1-.2v.4-.4l.1.2.5.8v.2-.2l.1.1v-.4l.5-4.6h.1v-.1h.1v-.5.6-.4l.4 1.3v-.3.1-.3h.1v.3-.1l.1-.5v.7-.6.5h.1v6.5l.3-9.1v-.3.1l.1.2v-.4.4h.1v-.5.5h.1l.2 9 .1-7.3v.3l.1.2v-.5.4-.1h.1v-.4.5l.1-.6v.4l.3 6.3.2-11.8v.9l.1-.2v.2l.4.4v.4-.6 2.8l.1-2.5v.3-.5.6-.2h.1v.3l.4-2.4v-.2.1-.6.6l.1-.2v-.4.7-.3.2l.1-.2v-.2.4l.4 1.4v-.5.3h.1v-.3.4-.4l.1.3v.3-.6l.1.4.3-3.2v-.3.4l.1-1v1-.4.3l.1.1v-.6.6-.6.6l.1-.5v6.9l.4-5.7v-.6 1l.1-.6v.5-.5.4-.4l.1.6v-.4.3l.2 5 .2-6.9v.1-.2.1l.1-.1v-.3.4-.7l.1.2v.7l.3 6.7.2-6.4.5 6v-8 .3h.1v-.8l.1.9.5 4.4.7-5 .7 1.4.8 5.5.7 10.8.7-10.6.7-12 .7 1.7.7 4.5.8 5 .7-1h.7l.7-1.5.7-12.9.7 2.1.8-1.8.7 14 .7 1.2.7 1.3.7-14.7.7-1.4.8 4.3.7 16.8.7.2.7-.4.7-19 .7 4.4.7-5.4.8 20 .7-1.1.7.6.7-1.7.7-20.2.7 1.6.8-3.1.7 18.8.7-2 .7-1.8.7-18 .7-1.5.8-2.7.7 6.5.7-3.7.2-13v-.2.5l.1-.8v-.3.8-.2l.1-.3v.5l.3 24 .1-28.6v-.5.4-.7l.1 1.4v-1.2.3l.1.2v-.5.2l.4-3.5v.3h.1v-.2.2-.2l.1-.5v.8-.7l.1.5v6.8-.2.2l.1-.4v.3-.4l.1-.6v.8l.1-8.9v-.4l.1-.2v1-1.1l.1.7v-1 1.7-1l.1-.3v4.7-1.2.5l.1.5v-.5.4l.1-.2v-.1.4-.7l.1 1.7v-8.4l.1.5v-.3.2-.5 1.1l.1-.2v.3h.1v-.6 5.7-.3l.1.1v.4-.3l.1-.4v3.9-3.8l.1.6v-.2l.4-7.8.3-2.2.3 2.6v44l.3-48.7.5 47.8.1-48.2.6 47.8v-33.5l.7 26.8.7-.2.8-.2.7 4.2.7-.6h.7l.7-4.6.7 5 .8-5.9.7 4.6.7-.4.7-.1.7 12.8.7-19.2.8-2.5.7.9.7 19.3.7-13 .7-.3.7-9.3.7.8.8-2.3.7 10 .7.1.7-.3.7-11 .7 13 .8-13.4.7-2.4.7 12.5.7-.3.7.1.7-11.7.8-2 .7 1.2.7 11h.7l.7-.4.7-12.4.8 1.6.7-1.7.7 11.7.7-.2h.7l.7-.3.7-10.4.8 2.1.7-1.7.7 9.2.7-.8.7.4.7-6.7.8 5.1.7-5.7.7 6.3.7-.8h.7l.7-8.4.8 3.4.7-4.6.7 1.2.7 7.4h.7l.7-.8.8-11.1.7 2 .7-4 .7 12.5.7-.4.7-.2.7-7 .8-8.2.7 2.8.7 25.4.7-14.1.7-.4h.7l.8-13.4.7-2.3.7 2.3.7 11.8.7.4.7-.6.8-14.3.7 16.7.7-16.8.7 13.7.7-.3.7-.6.8-13.8.7.6.7 11.7.7-14.5.7 15.3.7-.4.7-1 .8-14.1.7-1.5.7-1.6.7 10.6.7-2.7.7-4.8.7-18.7v-.5l.1.5v-.1.1l.1-.2v-.3.7-.7l.1.4v.1l.4-4.8v.2-.8.5-.2l.1.4v.3-.8 2.3l.1-2v-.2l.4-4.7v.2-.5.2-.3.6l.1-.4v.4-.6l.1.2v-.3.7l.4-.2v-2.7.4-.4h.1v-.3.7-.5.3l.1.2v-.9l.1 4.6v.3-.4.8-.8l.1.4v.3-1.6l.1 1.5v-.6l.1.8v-8 .1-.4l.1.5v-.2l.1.1v-.3.3-.9l.1 1.2v5.5-.1.3l.1-.8v.6-.2.3l.1-.7v.7-.4.3l.1-.3v.5l.3-9.7.2 51.2.1-53.4.3 3.8.4 15.7.6-23V268l.6-32.6.2 33 .7-.8.7 5.7.7-.3.8-1 .7-5.1.7-1.5.7 1.2.7 4.8.7-.8.7.6.8-9.2.7 1.5.7-1.7.7 1.1.7 6.9.7-.2.8-.3.7-.7.7-9 .7-2 .7 10.7.7-.4.8.1.7-11.4.7-2.2.7.8.7 12.6.7-.8.8 6.6.7-7.7.7-12.3.7 1.5.7-2 .7 12.4h.7l.8-.6.7-14.9.7 17.2.7-16.7.7 13.2.7-.2.8.2.7-10.8.7-1.9.7 2 .7-1.7.7 11.1.8-.1.7 1.6.7-9.6.7-1.7.7 18.2.7-8.7.8-1.3.7-.5.7-9.8.7 1.9.7-2.1.7 9.3.7-.5.8-.5.7 17 .7-29.2.7 2.1.7-2.9.7 12.3.8-1.4.7 1 .7-12.4.7-4 .7 2.6.7 12.3.8-.2.7-.6.7-16.2.7 2.4.7-3.6.7 3.1.8 13.5.7.5.7 3.1.7-21.6.7 3.4.7-3.9.7 19.4.8-2 .7.1.7-15.1.7-4.2.7 2.3.7 15.2h.8l.7-.6.7.5.7-16.2.7-2.5.7.2.8 15.1.7-2.2.7-2.6.7-22.6.6-5.4v2.3-2.5l.1.1v4.6l.1-4.2.4-4.8v.6l.1-.6v.5-.8.3l.1.4v.2-.2.6l.4-6v1l.1 8.8v-10.2 1.3l.1-1.5v.9-.7.2l.1.3v10l.3-16v.4l.1-.5v.5-.5.3l.1.1v.3-.7l.2 9.5v2.4-2.2.4-.1.2l.1-.3v.4l.1-.2v-13.2.3l.1-.7v1.2-.8l.1.7v-.6.6-.4l.1-.3v5.5h.1v-.5.6l.1.2v-.3 1.4-1l.1-.7v.9-9.6l.1.2v-.4.6-.3.2l.1 1.6v7.7-9l.1-.4v-1 7.7l.1-.3v.5l.1-.1v1-1.6.6-.3l.1.2v.1l.1 41.7.3-51.8.3-3.5.1 55.1.2-50.8.3-6.1.2 57 .1-32.8.3-25.9.3 50.4.4-26.8.4 41.3.7-.4.7-.5.7-6.2.7-2 .7 1.2.8 5.8.7 1 .7-1.2.7-9 .7 1.7.7-2.8.8 9.2.7-.5.7.2.7-.6.7-10.5.7.4.8-3.4.7 29 .7-16.4.7-.2.7-12.8.7-2 .7 1.4.8 11.6.7.3h.7l.7-16.4.7 1.8.7-2.2.8 1.9.7 13.5.7-.3.7.2.7-7 .7-7.5.8-2 .7 15.3.7-.4.7 7.5.7-20 .7-2.5.7 2.3.8 11.8h.7l.7-1 .7.4.7-9.7.7-2 .8 2.3.7 8.1.7.4.7 18.4.7-29.8.7 2.4.8-3.3.7 10.8.7-.2.7-1 .7-9 .7-2.7.8 1.4.7-3.4.7 25.4.7-11.7.7 12.8.7-26.8.7-3.1.8 2.2.7 11.9.7 16.1.7-6 .7-25.5.7.5.8-2.7.7 17.4.7-1.1.7.3.7.2.7-20.1.8 2.6.7-2.9.7 19.4.7 18.7.7-.1.7-37.2.8-2.8.7 1.2.7 18.3.7.2.7 11.4.7-32.5.7 1.9.8-1.4.7 1.1.7 17.4.7-1.8.7 5.4.7-31.1.8-3.7v-.3l.4-2.6v.1-.2h.1v-.2.4l.1-.2v.4-.8.3h.1v.4l.3-6.4v-.4l.1.2v.7l.1-.2v-.4.7-.2l.1-.1v16.3l.4-22.3v6.3-5.3.2l.1.1v-.6.5l.1.1v-.8.6l.2 15.8.2-22.6v.7-.1.4l.1-.3v.1-.3.5l.1-.2v-.3 13l.1-.5v1.8l.1-1.4v.2-.6.5l.1.1v-.5.5-1l.1-18.4v-.4 1.4-.5l.1-.5v.5-.1h.1v-.3 14l.1-1.7v-1.6.7-.1l.1.5v-.2h.1v-.2 5.9l.1-5.3v-15.7 4.4l.1-4v.4-.2l.1 10.8v-11.2.4-.2l.1.3v6l.1-.4v.6-.2l.1-.4v.7-.5.2l.1.2v.1-11 8.8-7.5l.1-1.6v.7l.1-.5v-.2.5-.4.4h.1v7.8-.1l.1.3v3.5-3.5.2l.1-.3v-.2 1.2l.1-.7.3 47.9v-59.3l.4-4.2.3 5.1v65.4l.3-73.3.3 28.7.1 44.8v20l.1.2.1-94.5.5 72.9.1 21.2.6-43.5.4 43.3v-.5.5l.4-27.6.7-.6.2 27.5.1.4"/>
    <path stroke="#c270a7" d="M89.1 427.3v-.1.1l.1-.1v.1-.1h.5v-.2h.3v.1-.1h.2v-.1h.1v.2h.1v-.1h.2l.1-.1h.1v-.1h.1v.2-.2h.1v-.3.4-.1h.2v.2-.2h.2l.1-.1v.2l.1-.2h.4v-.1h.1v-.3.3h.1v-.3.1l.1.4v-.2h.2v-.1.1l.1.2v-.4.2l.1-.2v.2h.1v-.1h.1v.1h.1v-.2.2-.1h.2v.2-.2h.1v-.1.1l.1.1h.1l.1-.2v.1-.1.1l.1-.1h.1v.2-.2l.1-.2v.2-.2l.1.2v-.1h.1v.2-2.4h.1l.1.2v-.2.2l.1-.1v-.6.7l.1-.2v.1h.1v.1h.1v-.1h.2v.1l.1-.2v.1h.1v-.2.3-.1h.1v.1-.1h.4v-.1.2-.2.2h.1v-.1h.1v-.2.2h.1v-.1h.1v.1-.1h.1v.1h.1v-.1h.1v.1-.2h.1v.4l.1-.3v.2-.2.1h.1v-.2.1l.1.1v-1.6h.1v-.2.2h.2v-.1.2-.1h.2v.1-.1h.1v-.7.8l.1.3v-.5l.1.2v-.2.5-.3l.1-.1v-.3l.1.3h.1v.1l.1-.1v-.1.2-.1h.1v.2-.6l.1.4v-.1.3l.1.2v-.1h.1v.1-.5h.1v.1l.1-.2v-.2.5-.1h.1v.4-.4l.1.2v-.3.2l.1.2v-.4h.1v-.5.6h.1l.1-.3v.2-.2.3h.1v-.3.3-.1h.2v.1-.1l.1.2v-.3.2h.1v-.2.3-.2h.1l.1.1v-.1.3l.1-.2v-.2.2-.1h.1v.1-.3l.1.2v-.2l.1.3v-.2.1-.1h.1v.1h.1v-.9l.1.9v.1-.1h.1v.1-.1.4l.1-.2v.2-.2.1l.1-.1v-1 .8-.2l.1.1v.1h.2v.3-.5.2l.1.1v-.1.4l.1-.5h.1v-.1.2-.2.1l.1.1v-.1h.3v.1l.1-.1v.1-.1h.1v-.7.8l.1-.1v.2-.3.1h.1l.1.1v-.3.4l.1-.1v-.1.2-.2l.1-.1v.2-.1h.1v.1-.2.1h.1v-.2.2h.1v-.2.3h.1v-.1.1h.1v-.2l.1.2v-.2.4h.1v-.3h.1v-.1.2-.1h.1v-.2.4-.2h.1v-.3.3l.1.1h.1v-.3.7-.8.3h.1v-.1.1l.1-.8v.8h.1v-.7.6h.1v-.1h.1v.1h.1v-.1.1-.1h.1v.1h.2v.1l.1-.1h.1v.2-.2l.1-.2v.2-.1.4l.1-.4v-.2.3h.1v.1h.1v-.3.2l.1.2v-.3l.1.2v-.1l.1.1v-.1.1h.1v.3-.1h.1v.1-.4h.1v-.1h.1v.2-.1h.1v.4l.1-.2v-1 .8h.1v.2-.4h.2v.1h.1v-.7.6l.1-.1v.2-.1h.1v-.1.2-.1l.1-.1v-.1.2h.1v-.4.4h.1v.1-.1h.1v.2-.2h.1v.1-.2l.1.2v-.1h.1v.1-.1h.1v.1-.1h.1v.1l.1-.1v.1-.3l.1.3v-.1.1h.1v-.1.1h.1v-.6.6l.1.5.1-.1v-.4l.1-.3v.2h.1v.4l.1-.1v.1-.3.4l.1-.2v-.3.2l.1.5v-.7l.1-.2v.4h.1v-.3.1h.1v.4-.4h.1v.1-.3l.1.4v-.1h.1v.3-.4l.1.1v-.8l.1-.4v.4h.1v-.7 1.8h.1v-.4.2h.1v-.4.1h.1v.4-.3h.1v-.2l.1.2v-.1h.1v-.3.2-1h.1v-.1h.2v1.4h.1v.1-.1h.1v-1.8h.1v-.4.3l.1 1.8v-.1.1h.1l.1-.1v.1l.1-.1h.1v-.1.2-.1h.1l.1.1v-2 .2h.2l.1-.4v2.4-.3.3-.3l.1.2v-.3.3h.1v-.2.2l.1-.3v.5-.3.2h.1v-.4.5-.3l.1.3v-.5.1l.1-.1v.4-.1.1h.1v-.1l.1.2v-.4h.1v.2-.1h.1v-.1l.1.1v-.2h.1v.2l.1-.1v.3-.3l.1-.4v-.3.4l.1-.2v.1-.2 1.1h.1v-.2.1-.3l.1.4v-.5.2l.1-.5v.7l.1-.4v.2l.1-.1v.1-.2h.1v-.1.1h.1v-.2.1-.1h.1v.1-.1h.1v-.2.2l.1.3v-.1h.2v-.2.2l.1.3v-.8l.1.8v-.3.5-.2l.1-.3v.3-.5.2l.1.4v-.3h.1v-.4.5h.1v-.3.2h.1v-.2.1h.1v-.1h.2v.4l.1-.1v-.4l.1-.1v-.2.1-.2l.1.2v1-.3.2l.1-.1v.1-.4.4h.1v-.4h.1v-.1l.1-.1h.1v.1h.1v-.5.2l.1-.1.1.2v-.2h.1v.5h.1v-.1h.1v.1-.4h.1v.5h.1v-.1l.1-.3v.4-.2l.1.2v-.3.4l.1-.3v-.1h.1v-.1.2-.3.1l.1.1v-.1.1h.1v.1-.2h.1v.3l.1-.2.1.3.6-.4.7-.4.7.4.7-.7.7.3.8.3.7-.6.7.1.7-.2.7.1.7-.8.8.7.7.8.7-1.4.7-.8.7-1 .7 1 .8 2.1.7-3.2.7 2.9.7-.6.7-1 .7-1.4.7 1 .8 2 .7-2.7.7 2.7.7-1.3.7-.1.7-1.3.8.4.7 2.1.7-3.4.7 1.4.7-1.3.7 1.4.8 1.9.7-2.9.7 2.6.7-2.5.7.4.7-1.3.8.3.7 1.6.7-4 .7 3.6.7-1.5.7-.5.7-1.3.8-.4.7 5.2.7-4.9.7.6.7.4.7.2.8 3.5.7-5 .7 4.7.7-4.9.7.3.7-.4.8.3.7 4.1.7-4.5.7 4.5.7-4 .7-.4.7-1.3.8.8.7 5 .7-4.7.7 1.1.7-.1.7-.2.8-1 .7.3.7 4.4.7-5.8.7 1.8.7-1.3.8 1.6.7 3.5.7-5 .7 4.4.7-4.1.7.3.8-1.4.7.7.7 4.6.7-5.2.7 4.9.7-4.5.7.2.8-1.5.7-1.3.7 6.8.7-4.6h.7l.7-1.4.8.6.7 3.6.7-5.3.7 5.6.7-3.4.7-2.2.8.8.7 1.1.7 4.3.7-5.9.7 5.6.7-6.2.8 1.5.7-.9h.7l.7 5.9.7-5.3.7 1.1.7-3.8.8 3 .7 4.8.7-6.3.7 5.8.7-5.7.7 1.4.8-1.1.7.7.7 4.8.7-6.6.7 5.8.7-5 .8-.5.7-1.1h.7l.7 6.7.7-6.1.7.3.8-.4.7 1 .7-1.4.7.2.7 5.8.7-6.9h.7l.8-.2.7 1 .7 6.4.7-6.7.7 6.4.7-5.8.8-1.2.7-.9h.7l.7 7.3.7-8.3.7 6 .8-5.2.7-.4.7-.9.7 1.1.7 7.8.7-8.1.8.1.7-1.7.7.6.7 8 .7-8.7.7 9 .7-8.8h.8l.7-1 .7-1.7.7 11.3.7-9.4.7 8.2.8-7.3.7-.2.7-2.3.7.2.7 8 .7-7.7.8 4 .7-7.7.7-.6.7.9.7-1.3.7 1.4.8-.5.7.2.7-1.5.7.8h1.4l.7-.4.8.4h.7l.7-.8.7-.7.7 1.2.7-5.3.8-2.1.7 4.7.7-1 .7 1.6.7.2.7-.5.8.7.7-.2.7-.3h.7l.7-.8.7-.2.8.9.7-.4h.7l.7-.5.7-.5.7.3h.7l.8-5.3.7 5.3.7-.4.7.3.7-1 .7 1h.8l.7-1.3.7.7.7-.7.7-.4.7-.3.8-1.8.7 1 .7 1.8.7-.4.7-.3.7.5.8-.3h.7l.7-.3.7-.1.7-.2.7.1.7-.4.8.2.7.1.7-.6h.7l.7.3.7-.4h.8l.7-.2.7-.2.7-.5.7.5h.7l.8-.2h.7l.7-.2.7-.5h.7l.7.1h1.5l.7-.3.7-.2.7-.1.7-.4h.7l.8.5.7-.3.7.3.7-.8.7-.5.7-.4.8.8h.7l.7-.3.7-.3h.7l.7-.2.8.2.7-.4.7-.3.7-.4.7.7.7-1.2.7.5.8.2.7-.2.7-.3.7.3.7-.1.7-1 .8.7h.7l.7-1.4h.7l.7.7.7-.8.8.8.7-.2.7-1 .7.7.7.1.7-.3.8.1h.7l.7-.3h.7l.7-1.2.7.8.7-.4.8-.5.7.7.7-.6.7.2.7-.3h1.5l.7-.2.7-.1.7-.3.7-1 .7 1h1.5l.7-.2h.7l.7-.3h.7l.8-1 .7.7.7-.9.7.6.7-.3.7-.5.7.8.8-.2.7-.2h.7l.7-.3h.7l.7-.5.8.4.7-.2.7-.2.7-.3.7-5.2.7 4.8.8-.8.7.8h1.4l.7-.2.7-.1.8.1.7-.1.7-.1.7-.1.7-.4.7-.7.7-.8.8 1.1.7-1.2.7 1.1.7-.1.7-.1.7-.2h1.5l.7-.1.7-.5h1.4l.8-.1h.7l.7-.2h.7l.7-1.5.7 1.2.8-1 .7.9.7-1.2.7-.5.7.5.7.5.7-.2.8.2.7-.3h.7l.7-.6.7.4.7-.1.8-1.1.7.9.7-.2.7-3.7.7 2.4.7 1 .8-.8.7.5.7.1.7-.1.7-.2.7-.5.8.5.7-.3.7-.2h1.4l.7-.5.7-1 .8.8.7-5.6.7 5.2.7.4.7-.2h.7l.8-.2.7-.1.7-.3.7-1 .7 1.2.7-.4.8-3.4.7 2.5.7-3.8.7-1.4.7 5.5.7.2.8-.5h.7l.7-.3.7.2h.7l.7-.4.7-.3h1.5l.7-.2h1.4l.7-1.3.8.6.7.3h.7l.7-.3.7-1.2.7 1.3.8-2 .7 1.6.7-.5.7-1.5.7 1.5h.7l.8-.3h1.4l.7-.3.7-.3h.7l.7.3.8-.4.7-.5.7.4.7-.3h.7l.7-5.5.8 3.8.7 1.4.7-.2.7.1h.7l.7-2 .8 1.5.7-1.5.7 1.5.7-.8.7-1.7.7.7h.8l.7.7.7.1.7.1.7-14.4.7 13.7.7.3.8-2 .7.8.7-.8.7 1.6.7.3.7-.7.8.4.7-2.5.7 2 .7-1.6h.7l.7 1.3.8-.3.7-.2.7-1.7.7 2 .7-1.5.7 1.3.8-.2.7-.6h.7l.7-.1.7-.3.7-.2.7.2.8.3.7-.5.7.3.7-.4.7.2.7-.3h.8l.7-.8.7.4.7-.2.7-2 .7 1.5h.8l.7.2.7-.3.7-.3h.7l.7-.4.7-.2.8.5.7-1.6.7 1.5.7-1.8.7-4.6.7 5.9.8.2.7-6.8.7 6.3h.7l.7-.3.7.2.8-.3.7-1.7.7 1.7.7-.7.7.3h.7l.8-.5.7.2.7-.4.7.3.7-1 .7-1.7.7 2.3.8-.5.7.4.7-.4h.7l.7-.3.7-1.7.8 2 .7-2.6.7 1.9.7-1.8.7 1.8.7-.4.8-.5.7-.4.7-.1.7.4.7-2.5.7-2.2.8 1.4.7-.6h.7l.7.2.7-.8.7.7.7-1.2.8 1.3h.7l.7.5.7-.5.7-.1.7.5.8-.9.7.5h.7l.7-.4.7-1 .7 1 .8.5.7-1.7h.7l.7-1.3.7-1 .7-.6.8-11 .7 12.2.3-32.7.4 33 .7.2.7-1 .7-.6.7.5.8-4.3.7-1.8.7 5.4.7-1 .7-3.5.7.8.8-1.2.7 2.3.7-7.5.7 5.8.7-4.3.7-4.2.8 2.4.7-1.4.7-1.6.7 6.1.7-8 .7-2.9.8-6 .7-5.7.7 7.5.7 5.3.7 2.9.7.7.7-1 .8-3.5.7-2.6.7-1.9.6-26.1v9.5l.1 8v-18.5 10.7l.1-31.7.1 8.4V308v-51 11.9l.1 29.3v10.1l.1-5v-11l.3 29.3.7 1.8.1-19.7.2 1.8.2-5.2.3 12.8.2-7.1v-1l.1-.8.2-3.8v4.7l.2-4.3v8.7-8l.2 2.3v-3.5l.1 2.9.1-2 .2 3 .2-.7v-.5l.1.2.1.5v-3.3l.3-.8v2.8-1.3l.1-.3.1-4.9.1 3.7.2 1.3v-2.6 3.9l.1-1.1v.7-13.2l.1 9.2v.8-.2l.1 7 .1-6.2V298l.1 3.3v-5.6l.1.8v-.3l.1 2v-4.6l.1 6.9V293v5.2l.1 1.1v.6-.8l.1-5.7v6.1l.1.4v-5.2 3.6l.1-1.8v-4.3 3.3-1l.1 4v1l.1-9.5v8.6-5.4 2.2l.1-1.8v4.7-7.8 4.7-1.2l.1 1.6v3.5-2.8l.1-1.6v6.1-5l.1-9.4V276l.1 20v-.5l.1 2h.1l.2-2.7v2.4h.1v-.4 3.1l.2-2.4V291l.1 4.1V291l.1 2.3v-2.4l.1 3.3v-2l.1 3v1l.1-1.8v3.2l.1-4.3v-6.7l.2 7.6v1.3l.1-4.4.2 3.5v.7-1l.1-.5v-3.5l.1 7.8v-6.4l.1-.1v2.1l.2-3.5V281v7l.1.8.1 2.7v1.6-7l.1-.9.1 5.8v8-7.6 2-.8l.2-2v.5-7.2 3.5l.1-.6v-1.6 5.8l.1-5v3.3-2l.1 1.5.1 2.5v-.4.9l.1-4.6v-.7l.2 4.7V285v6.3l.1-3.7v-3.1 1.5l.1-.3V284v4.2l.1-3.5v4.4-3.1l.1 3.9v.2l.1-1.7v-7.2l.1 5.7v1.3l.1-2.7v-2.8l.2 6.7V281v8.3l.1-1v-2.9 2.3l.1 1.7V283l.1 4v-1.3 9.7l.1-8.8v.4l.1-6v7.5-3.9 2.6l.1.2v-2.8l.1-2.2v2.7-4.3l.2 2.8v4.6-9.6 2.5l.1 3v-2.8 6.4-3.3l.1 2.8v-6.3 1.9l.1 2.7v-.5l.1-2.9v4.4-4l.2-3.3v5.2-1l.1 1.4v-1.3l.1.6v-3.8l.1 3V279l.1 3.1v1.4l.2-2v3.8-8.3l.1-.8v5.9l.2 2.1v-6.1.6l.1 1v3.2l.1-4.3.1.3.2 4v-3.5 2.3l.2 2v-4.4.2-1.7 5.8l.1-.3v3.5-6.9l.1 1.8v.3-.2l.1-4v4.5-7.7l.1 3.2v-4.6 9.8-10.2l.1 6.7v-.7l.1-3.1v6.4l.1-3.2.1-1v3.4l.1.5v-.9l.1-10.1v10.8l.1-7.9v4-6.4l.1 10v-11l.1.8v8.8-.5l.1-7.2v5.6-26.2l.1 17.3v6.7-14.4 7l.1-14.2v-15.8 40.2-10.2l.1 7.5v-22.5 6.2-1.1l.1 10.5v5.8-19.7 9.5l.1 4v7.1-12V277v-.3l.1-6.2v3.7-4.9 5.4l.1-9v6.9V260v4.3l.1 3.5V252v.7-6.4l.1 9.2v13.7V255v8.1l.1 3.6v6.8-11.8 13.5-1.1l.1-11v11.2-4.7 4.5l.1-12.1v1-2.2 4.5-.8l.1 12.4v-11.7 7.2-4.9 8.3l.1-9.7v8.4-3.8l.1 4.3v-5.7 7.2l.1-8.8v7.4-10.3 5.4l.1-1.6v6.3V259l.1-.8v10.9-5.9 11.4l.1.4v-17 7.7l.1 5.8v2.4l.1-6.1v2.2-5.2 4.2l.1-1.5v5.6-6.8 5.9l.1 3v-6 5.1l.1-5.6v2.8-6 7.3l.1-.9v.5-4.6 2l.1-.7v2.7-3 4.6l.1-2v-8.2 6.3-.5l.1.2v2-1.4 3.4-7.2l.1 5.9v-9 10.3-7.6l.1 4v4.1-2.1.2l.1-1.6v-1 2.2-.8l.1 1.6V271l.1.5v.2-6.8 8l.1-5v3.8-5 4.6l.1-2.7v-2.2 4.5l.1-1.4v2.3-3.3l.1-2.3v.6-2.2l.1-.5v-8.3 13.6l.1-10v6.1-1.5l.1-.4v6.7-8.9 6l.1-3.2v-.4 7.2-4.2l.1-2.2v-.4l.1 3.9v1.8-16.6 9.6l.1 1.7v4-4.5l.1 2v1.8l.1 1.3v-4.4l.1-1V259v9-6.8l.1 5.6v-8.2 5.2l.1-4.5v9.9l.1-4.4v3.2l.1 1v-7.7 1.8l.1-2.2v6.4l.1-3.8v-3.1 4l.1-5.3v-2.6 4.5-1.1l.1 6.8v-17.4l.1 1.5v10.4-10.7l.1 5.2v9.1-6.9.5l.1.1v1.1-5.5 7.9l.1-2.5v1.6-1.5 1-6.5l.1 11v-6.7 6V243l.1 16.3V244v19.6l.1-10.3v10-6.5 2.7l.1-1.3V252v11.2-6.4 6l.1-9.6v6.2-1.5 1.7l.1 2.8V255v5.4-1l.1-.6v-.4 5.9-7.4l.1 6.1v1.2-5.7 3.2l.1-4v-5 11.8-5.4l.1-4.8v9.3-5l.1-2V255v2.3-1.3 3.7l.1-8.4v8.3-7 8.3l.1-2.3v2.4-2.5 3.9l.1.5v-7.3 3.4-8.9l.1 7.6v1.9-5.5 6.8l.1-.8v-2.4 3-2l.1 1.4v-.8 1.3l.1-5.3V254v4.9-7.6l.1 8.5v-6.6 1.4l.1 3.3V256v5-9 6.6l.1.2V254l.1 4.5v-2.7 2.4-6.9l.1 5.8v-10.7 8.8l.1 1.2v-1.8 4.6l.1-2.5v4.3-15.5 9.6l.1-.2v3.7l.1-6.4v-3.8 10.5-.6l.1-4.8v4-46.4l.1 6.1v38.9-2.3l.1-.1v-21.3l.1 17.4v7.4-.5l.1-3.7v-48.9l.1 5v45.1l.1-.7v-23.2V255v-6.6l.1.5v7.2-19.9l.1-10.1v-31.3 56.8l.1-28.9V253v-26.3l.1 21.6v3-5.7 2.6l.1 4.4v-3.7 4.9-6.5l.1-.7v6.9-1.3 3-6.4l.1 2.7v3.9-3.9.7-6.5l.1 6v-2.3 3.6-.1l.1-.8v3.3-1.7l.4-1v2.5l.1-1.8v1.2l.1-1.5v-4.8l.1 5.2.1-1.8v2.7h.1v-3.1 1.4l.1.7.1-1.3v-2.8l.1-2.4v5.7-1.7l.1.4v-.6 2-3.2.3l.1 3.4v.4-3 2.3-.5l.1-4.3v3.5-.8 1.5l.1-2.2v-3.7 6l.1-4v3.2-5.9l.1 1.8v5-4.9l.1-.4v1.1-.2.6-1.8l.1 1v4-1.5.3-2.6l.1.7v2.5-4.5 4.5l.1-4.4v4.4-2 2l.1-4.3v4-3.5l.1-.6v-2.4 1-1.4l.1 4.2v.9-5.3 5-2.2l.1-3v3.6-3.9 5.4l.1-4.1v3.2-9.3l.1-2V249v-2.7l.1 1.2v-1 2.1-5 5.5l.1-.1v-6.1 1.6-3.3l.1 3.2v-1.6 1.5-2l.1 2.5v-2.2 2-1.9 1.5l.1-2.7v2-1.7 5-3.3l.1-6v5.1l.1-.9v-3.1 4.9l.1-.3v-2.5.4-3l.1 3.2v-1.1.8-2.3l.1-.6v2.5-2.3l.1.4v-1.3 2.5-3.9 1.3l.1 2.9v-3.6 5.4l.1-4.1v1.4-2.6.8l.1 2.6v-5l.1 1.4v.4-1.7l.1 2.6V236v.8l.1-.7v1.7-2.1 1.3l.1.1v-2 1.5l.1-2.8v3-2.3l.1.6v1.6-7.1l.1-4v10.7-2 2l.1-1.2v1.6-3.8l.1 2.6v-7.4 9.7l.1-2.7v-.9 1.8-1.4l.1 1.2v1.2-1.7l.1-3.3v3.3-.4.5-1.3l.1-.5v2.4-3.5 2.5l.1-2.1v-.6.8-.6 2l.1-2.3v2.3-2.4 2.2l.1-1.6v-.4 2.7-7.7 5.6l.1 1.2v-3.3.5-2.1l.1 5.1v-5 4.7-3 3.9l.1-3.1v2.7-5.7 6.6-5.6l.1 1.3v-.4 1.5-2.7l.1.6v3.6-5.8l.1 1.6v4.3-2.7 2.3l.1-.7v.8-1.3 3-2.2l.1 1.1v-3.3 1.7-2.8l.1 4.7v-12.5 8.2l.1-4.5v4.6-17.9l.1.3v1V151v48.6l.1 5.6v17.7l.1-4.8v10.7V174l.1 34.4v20.3-5 3.3l.1.7v-9.3 10l.1-4.9v5.3-3.7 4.8-6.5l.1 5v-8.7 3l.1 3.7v-8.2 9.6-2.4 3.9l.1-2v1.3-3.2l.1 3.2v-.9 2.1-5.6 3.3l.1 1.4v-2.1 3.6-7l.1-1.5v-8.5 11.3-1.8l.1 1.1v-2 .1-2.3l.1.7v-.8 1.5-11l.1-1.3v2.5-1.6 2.2-8.4l.1 9.2v1.3-.9 1.3V201l.1 12.8v-9.3 8l.1-22v.8-1 7l.1-6.5v2.2-4 2.2-3 .6l.1 2v-1.2.9-1.7l.1 1.6v.2-1.4.6l.1 1.2v-3 2.5-1.1.4l.1-.4v.2-3.3 4.8l.1-.7v-5 .4-.4l.1-.2v-.6 1.1-.9.5-1l.1.4v3.3-3.2h.1v-2.3 5.4l.1-.6v.2-3.5 2.2l.1-3.9v7.3-2.8l.1-1.9v11.7V181l.1 9.9v-7.5 17.2-13l.1 3v-2 5.3-5.8 6l.1-6.1v-4.4V212v-3.4 4.3l.1-1.5V201v16.2V201l.1 5.2v4.5-.8 14.6l.1-5.7V175v2.3l.1-.4V171v4.2-.9l.1 10.5v-9.3 7.7-4.5l.1-4.4v11.5-11.3 1.5l.1.5v1.9-3.6 3.3l.1-2.8v4.6-4.5.6l.1-1.3v4.1-6.6l.1 1.8v-3.3.6-1l.1 2.7v-5.5 5.1l.1-4v3.3-.4l.1 4.8v4.4-7.1.6-3l.1 2.1v-.6 2.3-.8l.1.6v1.5-5.5 5.1-4.8l.1 2.7V169v6.6-5.5l.1.1v2.1-3 1.3l.1 5.1v-4.3 5.6-6.6l.1-2.6v-1 3.5l.1-.8v1.4-3 2.9l.1-1v-2.7 2.7-2.4 3-.7l.1-8.5v-.6 1-.5l.1 2.4v-3 1.3-1.3l.1.2v1-.8.1-.3l.1.2v7.1-1.6l.1.4v1-.5.7l.1-1v1.9-2.1 2.2-.1l.1-1.5v-7.7l.1 1V159v.5-.5l.1.2v-1.1 1.3h.1v1-7 2.2l.1 2.2v-8.2 4.6l.1-.8v4.4-10.3 8.1l.1-1.7v1-25 17.9l.1-13.6v13.5-7.6 10-3.6l.1 1v-16.8 17.5-5.1l.1 1.7V138v17.3l.1.4v-3.6 4.3l.1-1.1v-4 4.6-4l.1 4v-.6.9-12.4 6l.1-12.8v-29.1 24.6-4l.1 15.3V137v.4-5V144l.1-2.2v-17.6 15.5l.1 4.5V117v17.8-20l.1 18.4v-12 21.1l.1-6.8v10.9-3.5 5.7-4l.1-2.5v9.1-6.6 6.9l.1-.1v1.3-17.4l.1 4.7v10.6-12.1 5.5-3l.1.7V117v20.2l.1-7.6v-8.8 17.5-20.6l.1 2.6v17.8-7.9 6.4l.1 16v-6.3 6.8-1.8l.1-11.3v10.8-7l.1 8.2v1-7.3 6.8-4.7l.1 3.9v1-4.9 5.8l.1-1.7v-18.3 16.1-13 16.8l.1-2.9v2.6-4l.1 2v8.9-.4l.1-.2v2-5.5 5.8l.1-7.8v7.5-10.8l.1 4v5.4V143v8.7-3l.1 4.2V137v16.3-2.8l.1-8.3v2.5-4.8 12.9-7.6l.1 4.1v-8.1V164v-4.4l.1 4.3v-7 5-.7l.1-6.8v7.6-2l.1-10.7V163v-3.4l.1 1.1v2.3-.6 3.5-6.7 1.6l.1 3.8v-.8.4-2.8 3.2l.1-4.6v2.6-1 13.7-2l.1 1v-.8 1.2l.1-1v-2.3 4.2l.1-4v3.6-13.8l.1-1.2v5.4-4.3l.1 2.4v-.9 1.3-4.2l.1.8V158v6-2.2 16.5l.1-.7V174v2.6-.7 1.8h.1v-3.4 1l.1.7v2.1-1.9 3l.1 2V179v1-1.2l.1 1.6v-.5 3.2-.2l.1-.7v-3 .6-2.3l.2 11.4.2-9.4v1-.7.7-2.4l.1 2.8v.3-2.6.4l.1-1.1v1.8-1.7 2.3-.8l.1 2 .2 8 .7 9.4.8 4.5.7 2.5.7 4.5.7 5.2.7 1.9.7.1.7 1.7.8 1.9.7-1 .7-1.3.7-.2.7 1 .7-.9.8-1.1.7-2.8h.7l.7-1 .7-.8.7 2.4.8-.3.7 3.6.7-2.2.7 4.6.7-.3.7 1.9h.8l.7 1.6.7 4 .7 3.4.7 1.6.7 2.8.7 1 .8.4.7 1.8.7-1.5.7-4.3.7-2 .7-2 .8-3.2.7-4.7.7 1.5.7-2.5.7 1.7.7-2.7.8-4.7h.7l.7-3.7.7-2.6.7-2.6.7-1.2.8-2.5.7-5 .7.5.7-4.3.7-.6.7-3.5.7.3.8.6.7-.2.7 4.6.7-3 .7 2.8.7-.8.8 1.8.7 2.5.7-1.4.7 2.8.7-.3.7 2.5.8-.7.7 2 .7 1.8.7-.8.7 2 .7.4.7 1.2.8.2.7 1.8.7 1.7.7.2.7 5 .7.1.8 2 .7 1 .7 1.9.7-.7.7 2.3h.7l.8-.2h.7l.7-1.3.7-.1.7-1.5.7-.8.8-.7.7-1 .7.3.7-1.4.7.3.7-12.5.7-7.8.5-13v-1.8.5-1.4l.1.7v-.2 1-.6.4l.1.1v-.4.6-1.3l.1.8.3-3.2v-1.3l.1.9v-2.5 2.7-.3l.1.2v.8-1 .5-.2l.1-.6v.6-1.4l.1.6v.6-2.3 2l.1.8v-1.3.9-1l.1.7v-2.6.5h.1v.5-1.3 1.2l.1-.1v.5-.3l.1-.4v2-.3l.1-1v1.2-.5.2-3.8l.1 3.7v-.3.4l.1-.3v.4-3.2.1l.1.5v-.7.1-1l.1.6v-.2.7-.2.2l.1.3v-1.2.7-2.4l.1-.2v-1 1.3l.1-1.1v1-.3.5h.1v-.8 1.2-9.6h.1v-1.4.7-.8.2h.1v.7-.3l.1-.5v.5-1.8l.1 10.3v-.9.8-.5.5l.1.1v-.7.5h.1v-.4.5-.3l.1-12.3V155v2.5l.1-.8V154v2.8-.6.5l.1-1.8v2.5-2.2 1.5l.1 1v-4.4.5-1l.1.3v2.6-2 2.3-2.1l.1 1.3v-3.4 4.4-2.5l.1 1.6v4.7-3.2l.1 2v1.3-2.1l.1 1.7v-1.3.2l.1-2v2.2-6.3.7l.1-.7v2.9-2 1.3-2.3l.1-1.3v4.6-1.5l.1-1.5v8.5-2.3l.1-.8v4.7-2.6 1.4l.1-.8v1.1-1.1l.1-.4v1.6-1.9 2.8l.1.3v-2.3 2.4-.4 1.4-3l.1-1v.9-.6 2.9l.1-1.9v7.8l.1 1.3v-1.5 1.2-.3.2l.1-.4v.7-1.3l.1-.2v.9-7.5l.1.3v2.6-3 2-2.8 2h.1v-2.3 2.4l.1.6v.4-4 2.3l.1 6.8.1-.8.3 6 .7.5.7 7.7.7 5.6.8 3.5.7.1.7 1.6.7 2.7.7-1.7.7 2.1h.8l.7-2.9.7 1.4.7-1.3.7-.8.7-3.8.7-.8.8-.8.7-1.8.7-1.3.7 2.7.7-1 .7 1.7.8 5 .7.4.7-1.3.7 3.5.7.9.7 5.5.8.3.7 1.9.7 3.6.7 1.2.7 1.3.7.1.8 1.8.7-1.5"/>
  </g>
  <g fill="rgba(0,0,0,.4)">
    <path d="M89.1 20.5h180v78.7h-180z" class="key"/>
    <path fill="#a7c270" d="M100 37.6h8v3h-8z"/>
    <path fill="#70a7c2" d="M100 59.5h8v3h-8z"/>
    <path fill="#c270a7" d="M100 81.4h8v3h-8z"/>
  </g>
  <g font-family="monospace" font-size="12" fill="#eee">
    <g text-anchor="middle">
      <text x="89.1" y="450.2" >0</text>
      <text x="185.9" y="450.2" >5000</text>
      <text x="282.6" y="450.2" >10000</text>
      <text x="379.4" y="450.2" >15000</text>
      <text x="476.1" y="450.2" >20000</text>
      <text x="572.9" y="450.2" >25000</text>
      <text x="669.6" y="450.2" >30000</text>
      <text x="766.4" y="450.2" >35000</text>
      <text x="427.7" y="481.6">Struct size</text>
      <text transform="rotate(-90 123 101)">Time (ns/call)</text>
    </g>
    <g text-anchor="end">
      <text x="79.5" y="434">0</text>
      <text x="79.5" y="393.3">100</text>
      <text x="79.5" y="352.6">200</text>
      <text x="79.5" y="311.9">300</text>
      <text x="79.5" y="271.2">400</text>
      <text x="79.5" y="230.6">500</text>
      <text x="79.5" y="189.9">600</text>
      <text x="79.5" y="149.2">700</text>
      <text x="79.5" y="108.5">800</text>
      <text x="79.5" y="67.8">900</text>
      <text x="79.5" y="27.1">1000</text>
    </g>
    <text x="116" y="44.6">Apple M2</text>
    <text x="116" y="66.5">AMD Ryzen 3900x</text>
    <text x="116" y="88.4">Intel Core i5-12400F</text>
    <a href="https://github.com/414owen/smolgraph">
      <text x="9.6" y="490.4" style="fill:#aaa">smolgraph</text>
    </a>
  </g>
</svg>
